<svg width="184" height="291" viewBox="0 0 184 291" fill="none" xmlns="http://www.w3.org/2000/svg">
<path d="M95.1806 120.128C95.001 123.695 94.5391 127.827 93.8719 132.395C92.6657 140.453 90.8181 149.64 88.7395 158.57C84.1716 179.048 78.7313 197.935 78.7313 197.935C78.2657 209.998 76.8845 222.008 74.5997 233.862C74.3688 235.171 74.1378 236.428 73.8812 237.711C73.1113 241.843 72.2902 245.821 71.5203 249.49C68.6718 262.527 66.08 271.944 66.08 271.944L53.5826 269.789C52.9924 262.706 52.7614 255.931 52.7871 249.593C52.7871 245.641 52.7871 241.894 53.0437 238.25C53.0437 236.351 53.249 234.504 53.3773 232.733C54.84 211.126 58.5097 196.806 58.5097 193.958C58.5097 179.51 59.4592 166.91 60.614 156.158C63.8474 126.518 69.57 111.07 69.57 111.07C77.6535 92.4904 89.7659 93.7735 93.7692 107.451C94.9266 111.572 95.4034 115.854 95.1806 120.128Z" fill="#FFEDE5"/>
<path d="M134.93 253.545C134.93 258.677 134.622 264.092 134.161 269.686L121.663 272.073C121.663 272.073 119.456 263.989 116.864 252.39C115.915 248.13 114.914 243.408 113.965 238.43C113.708 237.019 113.426 235.556 113.169 234.119C110.871 222.18 109.481 210.084 109.012 197.935C109.012 197.935 103.52 178.869 98.901 158.288C96.8994 149.46 95.0517 140.324 93.7686 132.343C93.0757 127.801 92.6395 123.618 92.4598 120.077C92.1853 115.757 92.6276 111.422 93.7686 107.246C97.8232 93.5683 109.91 92.3108 117.993 110.864C117.993 110.864 123.69 126.262 126.898 155.722C128.252 168.354 128.963 181.048 129.028 193.753C129.028 196.601 132.723 210.638 134.161 231.938C134.161 233.734 134.391 235.556 134.494 237.429C134.905 242.536 135.007 247.874 134.93 253.545Z" fill="#FFEDE5"/>
<path d="M134.34 232.04C127.316 233.104 120.241 233.798 113.144 234.119C110.854 222.179 109.473 210.084 109.012 197.935C109.012 197.935 103.52 178.869 98.9013 158.288C96.8996 149.46 95.052 140.324 93.7689 132.343C92.5628 140.401 90.7151 149.588 88.6365 158.519C84.1713 179.048 78.731 197.935 78.731 197.935C78.2654 209.998 76.8842 222.008 74.5994 233.862C66.9008 233.503 59.5358 233.015 53.377 232.502C54.8397 210.895 58.5093 196.575 58.5093 193.727C58.5093 179.279 59.4588 166.679 60.6136 155.927C63.847 126.287 69.5696 110.839 69.5696 110.839C77.6532 92.2594 89.7656 93.5425 93.7689 107.22C96.8483 96.776 104.624 93.5682 111.732 100.908C114.385 103.825 116.505 107.187 117.994 110.839C119.59 115.557 120.91 120.363 121.946 125.235C124.209 135.327 125.896 145.54 127.001 155.824C128.355 168.457 129.066 181.15 129.131 193.855C129.157 196.704 132.826 210.766 134.34 232.04Z" fill="#FF8A00"/>
<path d="M122.048 125.363C115.017 117.69 84.197 115.817 84.197 115.817L111.835 101.164C114.488 104.082 116.608 107.444 118.096 111.095C119.688 115.771 121.007 120.535 122.048 125.363Z" fill="#826B80"/>
<path d="M67.7219 284.673C67.7361 284.801 67.7361 284.93 67.7219 285.058C67.3113 290.832 62.5895 289.959 55.6094 290.19C50.0408 290.19 47.064 287.085 47.3976 283.723C47.507 282.705 47.8783 281.733 48.4754 280.9C50.0645 278.417 51.2268 275.684 51.9141 272.817C52.2162 271.519 52.9489 270.361 53.9927 269.532C58.3809 265.991 62.5895 268.711 64.6938 270.661C65.6342 271.501 66.2891 272.614 66.5671 273.843C67.358 277.398 67.7454 281.031 67.7219 284.673Z" fill="#3B2645"/>
<path d="M132.21 290.062C125.051 290.062 120.175 290.883 120.047 284.673V284.134C120.033 280.731 120.412 277.339 121.176 274.023C121.471 272.615 122.208 271.338 123.28 270.379C124.485 268.994 126.146 268.086 127.962 267.817C129.779 267.549 131.631 267.939 133.185 268.916C134.572 269.874 135.558 271.308 135.957 272.945C136.651 275.682 137.796 278.283 139.344 280.644C139.68 281.127 139.947 281.654 140.14 282.209C141.372 286.11 138.472 290.164 132.21 290.062Z" fill="#3B2645"/>
<path d="M106.754 20.8679C107.438 20.0691 107.875 19.0882 108.011 18.0451C108.084 16.3861 108.386 14.7452 108.909 13.1693C109.371 12.4717 109.75 11.7224 110.038 10.9367C110.133 10.5188 110.122 10.0838 110.005 9.67136C109.889 9.25897 109.671 8.88233 109.371 8.57581C108.935 8.13956 108.319 7.83162 108.114 7.24139C108.062 6.86681 108.062 6.48684 108.114 6.11226C108.034 5.55725 107.816 5.03118 107.48 4.58266C107.144 4.13414 106.7 3.77763 106.189 3.54607C105.143 3.03542 104.028 2.68094 102.879 2.49393C101.748 2.35338 100.667 1.94901 99.7222 1.31348C99.3335 0.950915 98.9126 0.624514 98.4647 0.338325C97.614 -0.0263383 96.6664 -0.0985395 95.7702 0.13303C94.0684 0.428058 92.4065 0.918895 90.8175 1.59576C90.2443 1.89652 89.6306 2.11262 88.9955 2.23731C88.046 2.23731 87.0452 2.05768 86.0957 2.23731C85.3844 2.46416 84.7312 2.84345 84.1816 3.34871C83.632 3.85398 83.1993 4.47306 82.9136 5.16277C82.7408 5.56044 82.4771 5.91202 82.1437 6.18925C81.7242 6.40295 81.274 6.55012 80.8093 6.6255C80.2219 6.85633 79.6998 7.22713 79.2884 7.70567C78.8769 8.1842 78.5886 8.75599 78.4484 9.37133C78.2057 10.643 78.2057 11.949 78.4484 13.2206C78.495 14.4778 78.6322 15.7299 78.859 16.9673C81.4252 27.232 82.1694 24.3836 82.1694 24.3836L89.868 23.5881C93.358 23.2031 96.8224 22.7925 100.287 22.305C101.672 22.0997 103.058 21.8174 104.444 21.5864C105.276 21.6393 106.098 21.3835 106.754 20.8679Z" fill="#3B2645"/>
<path d="M81.4512 19.9184C81.1965 19.5685 80.8626 19.2837 80.4768 19.0874C80.091 18.8911 79.6643 18.7888 79.2315 18.7888C78.7986 18.7888 78.3719 18.8911 77.9861 19.0874C77.6004 19.2837 77.2665 19.5685 77.0117 19.9184C74.8818 22.6642 78.808 27.617 81.7078 27.7709C81.7803 25.1506 81.6947 22.5283 81.4512 19.9184Z" fill="#86543D"/>
<path d="M123.768 49.5579C120.968 56.805 118.712 64.2504 117.019 71.8325C116.813 72.8076 116.659 73.7571 116.48 74.681C116.3 75.6048 116.223 76.2977 116.12 77.0419C116.018 77.7861 116.12 78.094 115.915 78.8125C115.12 86.5111 113.631 107.888 113.349 111.532C113.349 111.891 113.349 112.07 113.349 112.07C93.4096 118.204 72.2898 113.328 72.2898 113.328L72.1358 112.199C71.6739 108.657 67.3627 70.7803 67.2087 69.2663C66.3105 60.2589 65.669 51.9701 65.6177 46.8121C65.6177 46.0422 66.2849 45.606 67.2857 45.3237C68.9024 44.8618 71.1863 44.7848 72.9827 44.4768C76.328 43.9177 79.7047 43.5663 83.0935 43.4247H83.9147C84.0856 43.4145 84.257 43.4145 84.4279 43.4247H85.0438L85.6853 33.1599H86.6861C87.3399 33.2612 88.0005 33.3127 88.6621 33.3139C89.4511 33.3252 90.2399 33.2823 91.023 33.1856L92.1265 33.0573C92.6654 33.0573 93.153 32.8776 93.6405 32.7493C94.4273 32.5679 95.1993 32.3277 95.9501 32.0308C96.181 31.981 96.4051 31.9035 96.6173 31.7998H96.8226L97.3359 31.5689C98.2778 31.1598 99.1872 30.6794 100.056 30.1318L101.262 29.3106L101.467 29.131C101.631 29.0239 101.785 28.9038 101.929 28.7717L102.212 28.5408C102.212 28.9257 102.212 29.0797 102.212 29.2336C101.988 31.2277 101.868 33.232 101.852 35.2385C101.852 36.7013 101.852 38.164 101.852 39.4471C101.852 41.6284 101.852 43.2194 101.852 43.2194H103.289C103.316 43.2006 103.347 43.1905 103.379 43.1905C103.411 43.1905 103.443 43.2006 103.469 43.2194C105.549 43.2475 107.625 43.4276 109.679 43.7583C113.582 44.271 117.419 45.2001 121.124 46.5298C121.689 46.7608 122.1 46.9661 122.459 47.1457C122.818 47.3253 123.947 49.096 123.768 49.5579Z" fill="#FFEDE5"/>
<path d="M102.314 28.5665C102.023 30.4137 101.326 32.1734 100.274 33.719C99.2208 35.2645 97.8385 36.5575 96.2261 37.5048C94.6138 38.4521 92.8115 39.0301 90.9489 39.1974C89.0864 39.3646 87.2099 39.1169 85.4546 38.472L85.7882 33.16C88.7111 33.6193 91.6985 33.447 94.5493 32.6547C97.4 31.8623 100.048 30.4683 102.314 28.5665Z" fill="#86543D"/>
<path d="M81.7332 12.1942C80.2962 13.7852 80.2705 17.3266 80.2705 21.0476C80.2705 32.5698 83.8119 36.0598 89.7141 36.4447C95.6164 36.8297 101.724 34.4431 102.545 23.6138C103.033 18.2504 103.546 13.349 101.544 11.0394C98.6445 7.88297 86.0958 7.34407 81.7332 12.1942Z" fill="#FFEDE5"/>
<path d="M101.801 22.2793C101.801 22.2793 103.443 17.4548 106.369 19.8927C109.294 22.3306 105.573 29.6699 101.236 29.2593C101.211 29.2593 100.466 23.9473 101.801 22.2793Z" fill="#FFEDE5"/>
<path d="M105.111 22.0996C104.451 22.3339 103.866 22.7416 103.418 23.2801C102.894 23.743 102.474 24.3114 102.186 24.9481C102.186 25.1278 102.391 25.2304 102.52 25.1278C102.648 25.0251 103.161 24.3322 103.495 23.973C103.723 24.244 104.014 24.4554 104.342 24.5889C104.4 24.6147 104.465 24.6202 104.526 24.6045C104.588 24.5888 104.642 24.5529 104.681 24.5025C104.719 24.452 104.74 24.3901 104.739 24.3266C104.738 24.2631 104.715 24.2018 104.675 24.1526C104.497 23.8884 104.259 23.6689 103.982 23.511C104.454 23.1867 104.9 22.8264 105.317 22.4332C105.345 22.4002 105.363 22.359 105.366 22.3154C105.37 22.2719 105.359 22.2283 105.337 22.1911C105.314 22.1539 105.28 22.1249 105.239 22.1085C105.199 22.0921 105.154 22.0889 105.111 22.0996Z" fill="#86543D"/>
<path d="M85.3263 20.6113C85.3263 20.6113 84.3512 20.9962 84.4282 19.2512C84.5051 17.5062 85.2493 17.8398 85.2493 17.8398C85.2493 17.8398 85.9422 17.8398 85.8652 19.1999C85.7882 20.56 85.3263 20.6113 85.3263 20.6113Z" fill="#3B2645"/>
<path d="M95.4116 20.3033C95.4116 20.3033 94.4364 20.6882 94.5391 18.9176C94.6417 17.1469 95.3346 17.5318 95.3346 17.5318C95.3346 17.5318 96.0275 17.5318 95.9761 18.8919C95.9248 20.252 95.4116 20.3033 95.4116 20.3033Z" fill="#3B2645"/>
<path d="M90.0476 25.1791C89.5343 25.1791 88.3795 25.4357 88.1229 24.8968C88.1916 23.6694 88.4069 22.4547 88.7645 21.2785C89.1805 19.6972 89.5146 18.0955 89.7653 16.4797C89.7653 16.4797 89.7653 16.4797 89.5856 16.4797C88.6501 19.3353 87.9464 22.2617 87.4814 25.2304C87.4686 25.2663 87.4649 25.3049 87.4706 25.3425C87.4764 25.3802 87.4913 25.4159 87.5142 25.4464C87.5371 25.4769 87.5671 25.5012 87.6017 25.5173C87.6363 25.5333 87.6743 25.5406 87.7123 25.5384C88.4565 25.5384 89.1751 25.5384 89.9193 25.5384C90.2015 25.6154 90.2529 25.2048 90.0476 25.1791Z" fill="#86543D"/>
<path d="M87.3023 15.2993C86.6875 15.2476 86.0694 15.2476 85.4546 15.2993C84.823 15.1509 84.1784 15.065 83.53 15.0426C83.4561 15.0435 83.384 15.0657 83.3223 15.1064C83.2606 15.1472 83.212 15.2049 83.1823 15.2725C83.1525 15.3402 83.1428 15.415 83.1544 15.488C83.166 15.561 83.1984 15.6291 83.2477 15.6842C83.8442 16.1056 84.5335 16.3769 85.2572 16.4752C85.9809 16.5735 86.7177 16.4958 87.4049 16.2488C87.5118 16.2144 87.6034 16.1443 87.6646 16.0502C87.7257 15.9561 87.7524 15.8438 87.7404 15.7322C87.7283 15.6207 87.6782 15.5167 87.5983 15.4378C87.5185 15.3589 87.414 15.31 87.3023 15.2993Z" fill="#3B2645"/>
<path d="M98.1312 13.9392C97.267 14.4243 96.3172 14.738 95.3341 14.863C94.6925 14.863 93.9227 14.7347 93.4094 15.1709C93.3774 15.2207 93.3604 15.2786 93.3604 15.3377C93.3604 15.3969 93.3774 15.4548 93.4094 15.5045C94.4103 16.9673 97.695 15.2479 98.5418 14.2214C98.5675 14.0418 98.3109 13.8622 98.1312 13.9392Z" fill="#3B2645"/>
<path d="M93.8196 28.1815C92.7388 28.0274 91.6415 28.0274 90.5606 28.1815C89.8164 28.1815 88.7642 28.0532 88.2253 28.6691C88.8156 29.208 89.8164 28.977 90.5606 28.9514C91.6445 29.0543 92.7357 29.0543 93.8196 28.9514C93.9217 28.9514 94.0196 28.9108 94.0918 28.8386C94.164 28.7664 94.2046 28.6685 94.2046 28.5664C94.2046 28.4644 94.164 28.3664 94.0918 28.2943C94.0196 28.2221 93.9217 28.1815 93.8196 28.1815Z" fill="#86543D"/>
<path d="M181.687 161.803H1.66803C1.22564 161.803 0.801368 161.628 0.488553 161.315C0.175737 161.002 0 160.578 0 160.135C0 159.693 0.175737 159.269 0.488553 158.956C0.801368 158.643 1.22564 158.467 1.66803 158.467H181.687C182.129 158.467 182.553 158.643 182.866 158.956C183.179 159.269 183.355 159.693 183.355 160.135C183.355 160.578 183.179 161.002 182.866 161.315C182.553 161.628 182.129 161.803 181.687 161.803Z" fill="#3B2645"/>
<path d="M7.36508 168.732C6.60962 168.732 5.88509 168.432 5.3509 167.898C4.81671 167.364 4.5166 166.639 4.5166 165.884V154.31C4.5166 153.555 4.81671 152.83 5.3509 152.296C5.88509 151.762 6.60962 151.462 7.36508 151.462C8.12054 151.462 8.84506 151.762 9.37925 152.296C9.91345 152.83 10.2136 153.555 10.2136 154.31V165.832C10.2239 166.212 10.1577 166.589 10.0189 166.942C9.88006 167.295 9.67146 167.617 9.40557 167.888C9.13967 168.158 8.82193 168.373 8.47134 168.518C8.12075 168.663 7.7445 168.736 7.36508 168.732Z" fill="#3B2645"/>
<path d="M13.0619 178.817C12.3064 178.817 11.5819 178.517 11.0477 177.983C10.5135 177.449 10.2134 176.724 10.2134 175.969V144.302C10.2809 143.59 10.6115 142.928 11.1407 142.447C11.6698 141.966 12.3594 141.699 13.0747 141.699C13.79 141.699 14.4796 141.966 15.0087 142.447C15.5379 142.928 15.8685 143.59 15.936 144.302V175.969C15.9292 176.727 15.6234 177.451 15.0852 177.985C14.5469 178.518 13.8197 178.817 13.0619 178.817Z" fill="#291B30"/>
<path d="M18.7844 183.59C18.4094 183.594 18.0374 183.522 17.6903 183.38C17.3431 183.239 17.0278 183.029 16.7626 182.764C16.4974 182.498 16.2877 182.183 16.1458 181.836C16.0038 181.489 15.9325 181.117 15.9359 180.742V140.478C15.9359 139.723 16.236 138.998 16.7702 138.464C17.3044 137.93 18.0289 137.63 18.7844 137.63C19.5398 137.63 20.2644 137.93 20.7986 138.464C21.3328 138.998 21.6329 139.723 21.6329 140.478V180.742C21.6329 181.497 21.3328 182.222 20.7986 182.756C20.2644 183.29 19.5398 183.59 18.7844 183.59Z" fill="#3B2645"/>
<path d="M173.5 168.732C174.256 168.732 174.98 168.432 175.514 167.898C176.048 167.364 176.349 166.639 176.349 165.884V154.31C176.349 153.555 176.048 152.83 175.514 152.296C174.98 151.762 174.256 151.462 173.5 151.462C172.745 151.462 172.02 151.762 171.486 152.296C170.952 152.83 170.652 153.555 170.652 154.31V165.832C170.645 166.211 170.713 166.587 170.853 166.938C170.994 167.29 171.202 167.61 171.468 167.88C171.733 168.15 172.049 168.364 172.398 168.51C172.747 168.657 173.122 168.732 173.5 168.732Z" fill="#3B2645"/>
<path d="M167.804 178.817C168.559 178.817 169.284 178.517 169.818 177.983C170.352 177.449 170.652 176.724 170.652 175.969V144.302C170.585 143.59 170.254 142.928 169.725 142.447C169.196 141.966 168.506 141.699 167.791 141.699C167.076 141.699 166.386 141.966 165.857 142.447C165.328 142.928 164.997 143.59 164.93 144.302V175.969C164.936 176.727 165.242 177.451 165.781 177.985C166.319 178.518 167.046 178.817 167.804 178.817Z" fill="#291B30"/>
<path d="M162.081 183.59C162.456 183.594 162.828 183.522 163.175 183.38C163.522 183.239 163.838 183.029 164.103 182.764C164.368 182.498 164.578 182.183 164.72 181.836C164.861 181.489 164.933 181.117 164.929 180.742V140.478C164.929 139.723 164.629 138.998 164.095 138.464C163.561 137.93 162.836 137.63 162.081 137.63C161.325 137.63 160.601 137.93 160.067 138.464C159.533 138.998 159.232 139.723 159.232 140.478V180.742C159.232 181.497 159.533 182.222 160.067 182.756C160.601 183.29 161.325 183.59 162.081 183.59Z" fill="#3B2645"/>
<path d="M76.7547 66.1869C75.7033 69.8521 74.2488 73.3894 72.4178 76.734C71.6736 78.2737 68.6712 84.7918 68.5428 85.0484C63.8724 95.2876 57.2773 110.402 56.687 112.199C55.2243 117.998 52.0935 151.744 52.0679 151.744C48.8601 156.568 42.7526 154.31 42.7526 154.31C42.7526 154.31 42.7526 153.284 42.4703 151.539C41.7774 144.071 40.1351 123.079 42.0341 110.659C42.573 107.22 44.6002 98.8802 47.1664 89.4623C49.2194 81.7637 50.1176 74.4501 52.5555 66.9568C54.6089 60.5093 57.7036 54.4414 61.7168 48.9934C63.2201 47.2782 65.191 46.0386 67.3881 45.4264C68.3375 45.4264 68.7481 46.6582 69.5437 47.0174C71.8039 48.0727 73.6208 49.8896 74.6761 52.1498C76.9122 56.467 77.6437 61.407 76.7547 66.1869Z" fill="#FFEDE5"/>
<path d="M42.137 157.774C42.137 156.645 42.3679 155.491 42.3936 154.361C42.3936 152.591 42.3936 151.436 42.3936 151.436C43.4912 150.37 44.8919 149.669 46.4034 149.43C47.9149 149.191 49.4634 149.426 50.8364 150.102C51.4545 150.553 52.0223 151.069 52.5301 151.641C53.5565 152.616 54.737 153.386 55.7121 154.413C56.2196 154.902 56.6083 155.501 56.8485 156.164C57.0887 156.827 57.174 157.536 57.0979 158.236C55.8814 158.37 54.7529 158.935 53.9158 159.827C52.9663 161.008 53.3769 162.086 52.915 163.394C52.4531 164.703 51.3239 164.832 50.3488 164.985C47.0641 165.473 42.3679 165.627 42.0856 161.393C42.0139 160.187 42.0311 158.978 42.137 157.774Z" fill="#FFEDE5"/>
<path d="M144.861 151.359C144.707 153.104 144.579 154.13 144.579 154.13C144.579 154.13 138.471 156.466 135.238 151.564C135.238 151.564 132.107 117.921 130.542 112.122C130.285 111.147 128.284 106.399 125.769 100.651C123.254 94.9026 115.17 77.3242 114.914 76.7339C113.072 73.3945 111.617 69.856 110.577 66.1869C109.603 61.3443 110.3 56.3145 112.553 51.9188C113.622 49.6686 115.435 47.8559 117.685 46.7864C118.48 46.3876 119.364 46.2019 120.251 46.2475C120.532 46.2467 120.811 46.299 121.073 46.4015C121.548 46.533 121.999 46.741 122.407 47.0174C123.035 47.4562 123.62 47.9547 124.152 48.5058C128.753 53.4077 132.153 59.311 134.083 65.7506C136.649 73.4492 138.164 81.738 140.114 89.1543C142.68 98.5723 144.682 106.912 145.246 110.351C147.197 122.9 145.529 143.891 144.861 151.359Z" fill="#FFEDE5"/>
<path d="M145.093 157.8C145.093 156.517 144.939 155.234 144.913 154.361C144.913 152.591 144.913 151.436 144.913 151.436C143.822 150.369 142.425 149.667 140.917 149.428C139.409 149.189 137.864 149.424 136.496 150.102C135.875 150.559 135.3 151.074 134.777 151.641C133.776 152.616 132.57 153.386 131.62 154.413C131.108 154.899 130.716 155.497 130.476 156.161C130.235 156.825 130.153 157.535 130.235 158.236C131.411 158.546 132.561 158.95 133.673 159.442C134.623 160.418 133.904 161.29 133.904 162.419C133.904 163.985 134.982 164.524 136.47 164.78L139.345 165.293C140.869 165.66 142.471 165.525 143.912 164.908C144.12 164.79 144.302 164.633 144.451 164.447C144.574 164.259 144.661 164.05 144.708 163.831C145.199 161.86 145.329 159.817 145.093 157.8Z" fill="#FFEDE5"/>
<path d="M117.018 71.8326L118.455 111.994C94.7437 121.257 69.1074 112.609 69.1074 112.609L68.5428 74.1165L67.773 73.8855C66.6182 73.5263 65.3864 73.1413 64.129 72.6281C63.4104 72.3458 62.6662 72.0635 61.922 71.7043C58.7107 70.2373 55.5836 68.5924 52.5554 66.7772C54.6089 60.3297 57.7036 54.2618 61.7167 48.8138C63.2268 47.1065 65.1952 45.8685 67.388 45.2468C69.0047 44.8105 71.2886 44.7079 73.085 44.3999C76.4303 43.8408 79.807 43.4894 83.1958 43.3478L92.5111 66.4436C96.4998 58.9156 100.005 51.1414 103.007 43.1682H103.263C103.29 43.1494 103.321 43.1393 103.353 43.1393C103.385 43.1393 103.417 43.1494 103.443 43.1682C105.524 43.1963 107.599 43.3764 109.653 43.7071C113.566 44.2381 117.412 45.1843 121.124 46.5299C121.599 46.6614 122.05 46.8694 122.459 47.1458C123.087 47.5846 123.671 48.083 124.204 48.6342C128.804 53.5361 132.204 59.4394 134.135 65.879C131.047 67.2948 127.886 68.5454 124.666 69.6256C120.406 70.9601 117.018 71.8326 117.018 71.8326Z" fill="#3B2645"/>
<path d="M68.543 60.8493V74.1165L67.7731 73.8856C66.6184 73.5263 65.3866 73.1414 64.1292 72.6281C65.8019 68.7803 67.2751 64.8488 68.543 60.8493Z" fill="#27192E"/>
<path d="M61.9994 275.819C59.9721 274.69 56.1742 273.818 54.3009 275.383C54.2648 275.446 54.2458 275.516 54.2458 275.588C54.2458 275.661 54.2648 275.731 54.3009 275.794V275.948C54.3009 276.153 54.5831 276.204 54.7371 276.127C54.8911 276.05 54.7371 276.127 54.9167 276.127C55.3556 275.848 55.8599 275.689 56.3795 275.665C57.0433 275.635 57.7081 275.695 58.3554 275.845C59.5586 276.2 60.7985 276.415 62.0508 276.487C62.1392 276.48 62.2214 276.438 62.2791 276.371C62.3369 276.303 62.3655 276.216 62.3587 276.127C62.3519 276.039 62.3102 275.957 62.2429 275.899C62.1755 275.841 62.0879 275.813 61.9994 275.819Z" fill="#27192E"/>
<path d="M63.3083 279.438C62.1613 278.508 60.7299 278.001 59.2537 278.001C57.7919 277.651 56.2546 277.804 54.8911 278.437C54.7115 278.591 54.6088 278.976 54.8911 279.104C56.0888 279.412 57.3253 279.542 58.5608 279.489C60.0356 279.897 61.5496 280.146 63.0773 280.233C63.1621 280.218 63.2411 280.18 63.3052 280.122C63.3693 280.064 63.416 279.99 63.44 279.907C63.464 279.825 63.4644 279.737 63.4411 279.654C63.4179 279.571 63.3718 279.496 63.3083 279.438Z" fill="#27192E"/>
<path d="M132.39 274.434C131.011 273.675 129.434 273.357 127.869 273.522C126.305 273.687 124.828 274.328 123.639 275.358C123.382 275.691 123.639 276.333 124.024 276.281C125.333 276.281 126.59 275.511 127.873 275.383C129.156 275.255 130.568 275.742 131.902 275.588C132.415 275.537 132.877 274.921 132.39 274.434Z" fill="#27192E"/>
<path d="M133.468 277.795C131.788 277.395 130.049 277.3 128.336 277.513C127.73 277.435 127.116 277.486 126.532 277.663C125.948 277.84 125.408 278.139 124.948 278.54C124.589 279.002 124.948 279.874 125.59 279.643C128.156 278.745 131.056 280.079 133.596 279.155C133.735 279.095 133.852 278.992 133.929 278.862C134.006 278.731 134.04 278.58 134.025 278.429C134.011 278.278 133.95 278.135 133.849 278.022C133.749 277.908 133.616 277.829 133.468 277.795Z" fill="#27192E"/>
<path d="M44.9084 26.6675C36.2604 28.2586 27.2787 26.9241 18.8616 30.1575C18.297 30.3885 18.3227 31.338 19.0155 31.2867C24.1479 31.0044 29.152 29.9779 34.2587 29.67C37.9541 29.439 42.2909 30.2345 45.6526 28.4125C46.6278 27.848 45.9093 26.4879 44.9084 26.6675Z" fill="#F7F8F8"/>
<path d="M48.0388 14.6321C43.8218 12.4594 39.467 10.5649 35.0026 8.96079C34.2327 8.70417 33.7965 9.85896 34.4637 10.2696C38.4941 12.5927 42.6586 14.6749 46.9354 16.5054C48.1928 17.0443 49.3219 15.248 48.0388 14.6321Z" fill="#F7F8F8"/>
</svg>
