<svg width="309" height="352" viewBox="0 0 309 352" fill="none" xmlns="http://www.w3.org/2000/svg">
<path d="M159.267 72.549L164.133 111.211L118.867 113.581V84.9688L159.267 72.549Z" fill="#FFEDE5"/>
<path d="M118.867 103.832C118.867 103.832 147.167 117.888 155.167 73.8177L118.867 84.9689V103.832Z" fill="#86543D"/>
<path d="M111.818 65.9229C115.079 64.9381 116.279 59.3456 114.498 53.4317C112.718 47.5179 108.631 43.5221 105.37 44.5069C102.11 45.4917 100.91 51.0842 102.69 56.9981C104.471 62.9119 108.557 66.9077 111.818 65.9229Z" fill="#86543D"/>
<path d="M106.767 38.4947C106.767 38.4947 107.633 99.4586 134.067 101.395C160.5 103.331 162.6 54.1864 162.767 38.4947C162.933 22.803 146.233 18.2959 131.3 18.4628C116.367 18.6297 107.467 26.3086 106.767 38.4947Z" fill="#FFEDE5"/>
<path d="M161.633 52.1164C161.633 52.1164 154.9 42.7682 155.133 31.5169C155.133 31.5169 132.267 42.5011 117.1 33.8206C117.1 33.8206 108.033 39.4629 107.633 51.3486L104.533 44.8716C104.533 44.8716 102.867 31.3834 103.8 28.2117C104.367 26.3086 105.7 24.7061 107.467 23.838C107.467 23.838 99.7667 6.77747 118.567 0C118.567 0 118.633 4.10655 126.133 3.53898C133.633 2.97141 168.367 0.868056 165.6 19.431C165.567 19.3976 173.3 31.5169 161.633 52.1164Z" fill="#3B2645"/>
<path d="M169.474 53.7612C171.109 47.8053 169.773 42.2437 166.489 41.3391C163.205 40.4344 159.218 44.5293 157.582 50.4852C155.946 56.4411 157.283 62.0026 160.566 62.9073C163.85 63.8119 167.838 59.7171 169.474 53.7612Z" fill="#FFEDE5"/>
<path d="M161.633 56.223C161.6 56.223 161.533 56.223 161.5 56.1896C161.333 56.1228 161.266 55.9225 161.333 55.7556L164.267 49.6792C164.333 49.5123 164.533 49.4455 164.7 49.5123C164.867 49.5791 164.933 49.7794 164.867 49.9463L161.933 56.0227C161.866 56.1562 161.767 56.223 161.633 56.223Z" fill="#472938"/>
<path d="M133.033 72.6158C131.4 72.6158 128.233 71.7477 127.5 70.4122C127 69.4774 128 64.2357 129.933 55.4551C130.266 53.8859 130.566 52.6506 130.666 52.0497C131.066 49.8462 129.833 49.2452 129.766 49.2452C129.6 49.1784 129.533 48.9781 129.6 48.8112C129.666 48.6442 129.867 48.5775 130.033 48.6442C130.1 48.6776 131.8 49.4455 131.3 52.1832C131.2 52.7842 130.933 54.0195 130.566 55.622C129.666 59.6952 127.566 69.2437 128.066 70.1118C128.666 71.2135 132.4 72.2151 133.5 71.9146C134.6 71.6142 136.766 70.0116 136.8 70.0116C136.933 69.9115 137.166 69.9448 137.266 70.0784C137.366 70.2119 137.333 70.4456 137.2 70.5458C137.1 70.6126 134.9 72.2151 133.7 72.549C133.5 72.5824 133.3 72.6158 133.033 72.6158Z" fill="#472938"/>
<path d="M133.7 82.4314C130.7 82.4314 128.367 81.697 128.333 81.697C128.167 81.6302 128.067 81.4632 128.133 81.2629C128.2 81.096 128.367 80.9958 128.567 81.0626C128.667 81.096 140 84.6016 144.267 75.7541C144.333 75.5872 144.533 75.5204 144.7 75.5872C144.867 75.654 144.933 75.8543 144.867 76.0212C142.3 81.2629 137.467 82.4314 133.7 82.4314Z" fill="#472938"/>
<path d="M146.067 50.2134C147.133 50.2134 148 51.0814 148 52.1498V53.5854C148 54.6538 147.133 55.5218 146.067 55.5218C145 55.5218 144.133 54.6538 144.133 53.5854V52.1498C144.133 51.0814 144.967 50.2134 146.067 50.2134Z" fill="#472938"/>
<path d="M120.033 51.5489C121.1 51.4487 122.033 52.2166 122.133 53.285L122.266 54.7206C122.366 55.789 121.6 56.7238 120.533 56.824C119.466 56.9241 118.533 56.1562 118.433 55.0879L118.3 53.6523C118.2 52.5839 118.966 51.6491 120.033 51.5489Z" fill="#472938"/>
<path d="M152.7 44.0369C150.366 42.7015 147.6 42.5011 145.1 43.4694C140.933 45.1387 139.7 44.0035 139.433 43.436C139.166 42.8684 141.966 40.0973 147.566 40.331C151.4 40.4646 152.7 44.0369 152.7 44.0369Z" fill="#472938"/>
<path d="M111.9 47.1084C113.967 45.4057 116.7 44.7714 119.3 45.3056C123.7 46.2738 124.7 44.9717 124.867 44.3708C125.033 43.7698 121.833 41.4996 116.333 42.6013C112.6 43.4026 111.9 47.1084 111.9 47.1084Z" fill="#472938"/>
<path d="M216.667 130.809L194.834 122.662C137.867 140.524 113.234 126.569 103.7 116.92C103.7 116.92 69.1336 121.794 64.5336 125.6C59.9336 129.406 73.0669 245.625 73.7336 271.066C74.1669 287.291 72.1336 310.862 70.6003 325.753C95.8003 342.346 125.334 351.861 157.867 351.861C177.634 351.861 197.3 345.217 215.734 334.099C212.634 308.191 206.167 254.072 205.9 246.293C205.567 236.043 216.667 130.809 216.667 130.809Z" fill="#FF8A00"/>
<path d="M118.867 113.581L103.7 116.92C113.234 126.569 137.867 140.524 194.867 122.696L164.134 111.211L118.867 113.581Z" fill="#FFEDE5"/>
<path d="M207.3 225.493C207.3 225.493 192.534 154.413 183.034 126.034C181.7 122.028 180.467 118.89 179.4 116.92L166.634 112.146C166.634 112.146 168.467 119.023 170.867 128.739C175.334 146.667 181.8 174.211 182.6 185.83H114.234V114.583L102.567 116.92C102.567 116.92 102.567 117.02 102.534 117.187C101.6 122.796 84.5002 221.687 71.8002 243.689C71.8002 243.689 73.5669 265.557 73.7002 271.066C74.1336 287.291 72.1002 310.862 70.5669 325.753C95.7669 342.346 125.3 351.861 157.834 351.861C177.6 351.861 197.267 345.217 215.7 334.099C212.6 308.191 206.134 254.072 205.867 246.293C205.834 243.856 206.4 236.01 207.3 225.493Z" fill="#3B2645"/>
<path d="M71.3339 237.913L82.6006 189.235L68.2339 202.757L71.3339 237.913Z" fill="#543753"/>
<path d="M148.467 293.401C139.434 293.401 131.8 290.129 125.767 283.719C115.967 273.269 112.1 256.108 110.6 243.555C108.967 229.967 109.634 218.715 109.667 218.615L109.7 218.315H187.267L187.3 218.615C187.3 218.715 188 230 186.367 243.555C184.867 256.108 181 273.269 171.2 283.719C165.134 290.129 157.5 293.401 148.467 293.401ZM110.3 218.949C110.2 220.852 109.8 231.235 111.267 243.488C112.767 255.941 116.6 272.935 126.267 283.252C132.167 289.528 139.634 292.733 148.467 292.733C157.3 292.733 164.767 289.528 170.667 283.252C180.334 272.935 184.167 255.941 185.667 243.488C187.134 231.235 186.734 220.852 186.634 218.949H110.3Z" fill="white"/>
<path d="M64.4999 125.6C64.4999 125.6 51.2666 136.317 20.7666 198.483L62.4999 234.407L86.4999 190.637C86.4999 190.637 76.1666 123.764 64.4999 125.6Z" fill="#FF8A00"/>
<path d="M71 321.68C71 321.68 89.3666 330.193 92.2333 329.025C95.1 327.856 91.5666 303.684 90.6666 303.417C89.7666 303.15 73.8 290.897 70.6 291.665C68.3667 292.199 66.3 299.377 66.3 299.377L32.1333 273.369L57.8333 230.401L20.7667 198.483C20.7667 198.483 9.23333 218.782 0 237.779C15.5333 274.705 39.8667 305.487 70.6 325.753L71 321.68Z" fill="#FFEDE5"/>
<path d="M20.7666 198.483L57.8333 230.401L54.1999 236.477L20.7666 198.483Z" fill="#86543D"/>
<path d="M216.667 130.809C222.6 132.879 263.1 184.795 263.1 184.795L218.767 218.582C218.767 218.582 202.333 195.946 200.767 184.795C199.2 173.644 204.667 126.635 216.667 130.809Z" fill="#FF8A00"/>
<path d="M263.133 184.828C263.133 184.828 306.433 246.059 308.267 259.38C310.1 272.701 304.633 287.258 268.367 287.024C232.1 286.791 200.667 283.018 192.433 284.587C184.2 286.156 165.833 287.191 162.7 286.29C159.567 285.388 148.733 259.38 149.267 255.841C149.8 252.302 155.267 250.232 155.267 250.232C155.267 250.232 153.733 247.895 154.167 245.658C154.6 243.421 173.6 248.062 177.767 248.53C181.933 248.997 191.033 259.313 193.367 259.848C195.7 260.382 252.567 251.668 252.567 251.668L220.8 217.046L263.133 184.828Z" fill="#FFEDE5"/>
<path d="M263.133 184.828L220.8 217.046L225.733 222.455L263.133 184.828Z" fill="#86543D"/>
<path d="M252.567 251.668L274.1 247.895C274.1 247.895 263.8 247.361 262.1 226.661L252.567 251.668Z" fill="#86543D"/>
<path d="M262.067 218.615H159.567C158.933 229.299 159.9 238.28 161.467 245.558C167.433 246.46 175.3 248.229 177.8 248.53C181.967 248.997 191.067 259.347 193.4 259.848C195.733 260.348 252.567 251.668 252.567 251.668C263.767 246.56 262.067 218.615 262.067 218.615Z" fill="#E3DCF7"/>
<path d="M183.433 249.331C176.767 246.059 161.467 245.592 161.467 245.592C167.433 246.493 175.3 248.263 177.8 248.563C181.967 249.03 191.067 259.38 193.4 259.881C194.433 260.115 205.7 258.579 218.167 256.809C199.233 258.746 190.067 252.569 183.433 249.331Z" fill="#3B2645"/>
<path d="M159.567 218.615C159.567 218.615 151.567 211.304 153.034 208.432C154.5 205.561 160.767 210.97 160.767 210.97C160.767 210.97 155.4 197.214 159.367 195.812C163.334 194.41 176.7 210.168 176.7 210.168C176.7 210.168 173.667 195.612 175.467 195.011C177.267 194.41 187.734 208.065 187.734 208.065C187.734 208.065 191.9 190.671 196.234 190.604C200.567 190.537 197.467 210.502 197.467 210.502C197.467 210.502 202.167 195.178 205.734 196.213C209.3 197.248 209.634 213.641 209.634 213.641C209.634 213.641 210.267 201.087 212.834 200.586C215.4 200.086 218.767 218.615 218.767 218.615H159.567Z" fill="#679E97"/>
<path d="M222.233 218.615C222.233 218.615 227.467 201.354 230 201.121C232.533 200.887 232.7 215.377 232.7 215.377C232.7 215.377 237.833 198.383 239.4 197.949C240.967 197.515 242 209.267 242 209.267C242 209.267 250.2 197.482 252.1 197.916C254 198.35 251.5 209.267 251.5 209.267C251.5 209.267 259.333 198.116 264.467 199.785C269.6 201.455 262.133 218.582 262.133 218.582L222.233 218.615Z" fill="#679E97"/>
<path d="M262.067 218.615C262.067 218.615 273.633 207.831 270.6 205.461C267.566 203.09 253.633 212.038 253.633 212.038C253.633 212.038 265.033 197.181 264.5 192.741C263.967 188.3 242.333 216.512 242.333 216.512C242.333 216.512 251.7 196.38 249.367 195.311C247.033 194.243 237.4 216.979 237.4 216.979C237.4 216.979 240.267 204.393 237.4 204.459C234.533 204.526 230.566 217.614 230.566 217.614C230.566 217.614 226.6 203.725 223.9 203.191C221.2 202.656 221.566 211.103 221.566 211.103C221.566 211.103 219.133 204.559 216.7 204.927C214.267 205.294 217.133 213.974 217.133 213.974C217.133 213.974 209.667 201.621 205.466 201.421C201.267 201.221 199.233 214.442 199.233 214.442C199.233 214.442 200.633 201.722 197.833 201.388C195.033 201.054 193.066 215.143 193.066 215.143C193.066 215.143 191.666 195.111 186.1 194.577C180.533 194.043 184.867 209.901 184.867 209.901C184.867 209.901 175.833 203.625 173.633 204.927C171.433 206.229 176.766 218.615 176.766 218.615H262.067Z" fill="#85CCC6"/>
<path d="M209.4 203.591C209.367 203.591 209.367 203.591 209.4 203.591C209.2 203.558 209.067 203.424 209.067 203.224L212.534 168.035C212.567 167.868 212.7 167.701 212.9 167.734C213.067 167.767 213.234 167.901 213.2 168.101L209.734 203.291C209.7 203.458 209.567 203.591 209.4 203.591Z" fill="#472938"/>
</svg>
