<svg width="12" height="15" viewBox="0 0 12 15" fill="none" xmlns="http://www.w3.org/2000/svg">
<mask id="mask0_3696_1650" style="mask-type:luminance" maskUnits="userSpaceOnUse" x="0" y="9" width="12" height="6">
<path fill-rule="evenodd" clip-rule="evenodd" d="M0 9.37199H11.8799V14.9025H0V9.37199Z" fill="white"/>
</mask>
<g mask="url(#mask0_3696_1650)">
<path fill-rule="evenodd" clip-rule="evenodd" d="M5.94075 10.497C2.745 10.497 1.125 11.046 1.125 12.1297C1.125 13.2232 2.745 13.7775 5.94075 13.7775C9.13575 13.7775 10.755 13.2285 10.755 12.1447C10.755 11.0512 9.13575 10.497 5.94075 10.497ZM5.94075 14.9025C4.4715 14.9025 0 14.9025 0 12.1297C0 9.65774 3.39075 9.37199 5.94075 9.37199C7.41 9.37199 11.88 9.37199 11.88 12.1447C11.88 14.6167 8.49 14.9025 5.94075 14.9025Z" fill="#7B6F72"/>
</g>
<mask id="mask1_3696_1650" style="mask-type:luminance" maskUnits="userSpaceOnUse" x="1" y="0" width="9" height="8">
<path fill-rule="evenodd" clip-rule="evenodd" d="M1.95752 0H9.92254V7.96395H1.95752V0Z" fill="white"/>
</mask>
<g mask="url(#mask1_3696_1650)">
<path fill-rule="evenodd" clip-rule="evenodd" d="M5.9408 1.0707C4.33505 1.0707 3.02855 2.37645 3.02855 3.9822C3.0233 5.5827 4.32005 6.8877 5.91905 6.8937L5.9408 7.4292V6.8937C7.5458 6.8937 8.85155 5.5872 8.85155 3.9822C8.85155 2.37645 7.5458 1.0707 5.9408 1.0707ZM5.94079 7.96395H5.91679C3.72529 7.9572 1.95004 6.16995 1.95754 3.97995C1.95754 1.7862 3.74404 -0.000305176 5.94079 -0.000305176C8.13679 -0.000305176 9.92254 1.78619 9.92254 3.9822C9.92254 6.1782 8.13679 7.96395 5.94079 7.96395Z" fill="#7B6F72"/>
</g>
</svg>
