<svg width="230" height="335" viewBox="0 0 230 335" fill="none" xmlns="http://www.w3.org/2000/svg">
<path d="M61.1824 244.785C40.9824 295.602 46.749 329.935 46.749 329.935C65.9157 333.439 85.3824 334.873 104.849 334.24C129.516 333.439 152.316 325.765 172.982 314.12C173.682 285.892 164.049 260.701 157.182 246.387C113.016 267.774 74.4824 251.792 61.1824 244.785Z" fill="#FF8A00"/>
<path d="M67.1158 231.105C64.9492 235.777 62.9492 240.348 61.2158 244.785C74.4825 251.792 113.049 267.808 157.182 246.387C153.416 238.546 150.449 233.975 150.449 233.975C150.449 233.975 94.2825 172.848 67.1158 231.105Z" fill="#FEF9EF"/>
<path d="M110.982 333.872V316.289L126.249 305.678L116.149 319.792L117.182 333.372L110.982 333.872Z" fill="#543753"/>
<path d="M38.4156 120.998C38.4156 120.998 36.8822 121.565 36.6156 137.113C36.3489 152.662 35.1822 183.592 35.1822 183.592C35.1822 183.592 21.0822 170.479 20.0489 163.873C19.0155 157.266 19.4489 151.327 18.7489 147.69C18.0489 144.054 17.9155 134.11 18.2155 132.242C18.5155 130.373 13.7822 130.073 12.4822 132.843C11.1822 135.612 10.7489 144.821 10.0822 145.155C9.41554 145.488 1.7822 146.189 1.04887 147.857C0.315538 149.526 1.61554 152.562 0.482206 155.098C-0.651128 157.633 0.582206 159.435 0.482206 161.37C0.382206 163.306 -0.0844633 164.04 0.782204 166.976C1.64887 169.912 1.81554 172.381 3.21554 172.848L4.61554 173.315L9.51554 174.984C9.51554 174.984 30.5155 222.33 40.9156 223.364C51.3156 224.399 56.7489 216.124 58.0489 209.451C59.3489 202.778 66.3156 162.805 66.3156 162.805L38.4156 120.998Z" fill="#FFEDE5"/>
<path d="M50.2158 153.896L61.7491 188.964L66.3158 162.772L50.2158 153.896Z" fill="#86543D"/>
<path d="M35.1821 183.559C35.1821 183.559 44.9821 191.8 48.2155 198.573C48.2155 198.573 42.9821 184.693 35.3821 178.254L35.1821 183.559Z" fill="#86543D"/>
<path d="M6.24902 172.648C6.24902 172.648 16.4823 172.381 17.3157 171.747C18.149 171.113 18.1823 168.11 17.749 167.743C17.749 167.743 18.5823 163.372 17.8157 162.238C17.8157 162.238 18.1157 159.001 17.7823 157.1C17.7823 157.1 19.4823 166.842 19.2823 168.377C19.0823 169.912 19.8823 172.515 15.2824 173.282C10.6824 174.05 6.24902 172.648 6.24902 172.648Z" fill="#86543D"/>
<path d="M17.8156 162.305C17.7822 162.305 17.7822 162.305 17.7489 162.305C17.5822 162.271 17.4489 162.104 17.4822 161.938C17.9156 159.235 17.2156 153.997 17.2156 153.963V153.896V153.83C17.5156 152.662 18.1489 149.359 17.2822 148.358C16.5156 147.457 9.11556 147.223 4.61556 147.29C4.44889 147.29 4.28223 147.157 4.28223 146.956C4.28223 146.756 4.41556 146.623 4.61556 146.623C6.61556 146.589 16.5822 146.523 17.7822 147.924C18.9822 149.325 18.0489 153.229 17.8822 153.93C17.9489 154.564 18.5489 159.368 18.1156 162.038C18.1156 162.205 17.9489 162.305 17.8156 162.305Z" fill="#472938"/>
<path d="M17.5491 154.23C17.5158 154.23 17.5491 154.23 17.5491 154.23L6.81576 153.73C6.61576 153.73 6.48242 153.563 6.48242 153.396C6.48242 153.196 6.61576 153.062 6.81576 153.062L17.5491 153.563C17.7491 153.563 17.8824 153.73 17.8824 153.896C17.8824 154.097 17.7158 154.23 17.5491 154.23Z" fill="#472938"/>
<path d="M17.7154 168.077H7.14876C6.94876 168.077 6.81543 167.944 6.81543 167.743C6.81543 167.543 6.94876 167.41 7.14876 167.41H17.7154C17.9154 167.41 18.0488 167.543 18.0488 167.743C18.0488 167.944 17.9154 168.077 17.7154 168.077Z" fill="#472938"/>
<path d="M17.9154 160.803H5.78206C5.58206 160.803 5.44873 160.67 5.44873 160.47C5.44873 160.269 5.58206 160.136 5.78206 160.136H17.9154C18.1154 160.136 18.2487 160.269 18.2487 160.47C18.2487 160.67 18.1154 160.803 17.9154 160.803Z" fill="#472938"/>
<path d="M198.849 104.748L219.049 103.981C219.915 103.948 220.649 104.615 220.682 105.482L222.249 147.19C222.282 148.057 221.615 148.791 220.749 148.825L200.549 149.592C199.682 149.626 198.949 148.958 198.916 148.091L197.349 106.383C197.316 105.482 197.982 104.782 198.849 104.748Z" fill="#3B2645"/>
<path d="M200.483 148.224C200.349 148.224 200.249 148.124 200.249 147.991L198.683 106.283C198.683 106.216 198.716 106.15 198.749 106.116C198.783 106.083 198.849 106.05 198.916 106.05L219.116 105.282C219.249 105.282 219.349 105.382 219.349 105.516L220.916 147.223C220.916 147.357 220.816 147.457 220.683 147.457L200.483 148.224Z" fill="#FEF9EF"/>
<path d="M136.216 99.5766C136.216 99.5766 157.416 101.712 161.349 118.929C165.282 136.146 172.549 177.052 172.549 177.052C172.549 177.052 188.016 152.261 189.249 148.324C190.482 144.387 194.482 131.074 194.349 126.536C194.216 121.999 198.649 125.235 198.649 130.64L199.316 148.525C199.349 149.125 199.849 149.592 200.449 149.559H200.482L220.949 148.024C221.649 147.991 222.149 147.39 222.116 146.689V146.456C222.116 146.456 220.649 143.42 221.082 142.018C221.516 140.617 225.016 140.483 225.416 140.817C225.816 141.151 227.982 145.321 227.916 146.456C227.849 147.59 225.316 151.127 223.649 151.661C221.982 152.195 205.382 156.199 201.982 161.337C198.582 166.475 183.716 211.486 171.649 214.956C159.582 218.426 147.816 185.694 145.049 176.118C142.282 166.542 136.216 99.5766 136.216 99.5766Z" fill="#FFEDE5"/>
<path d="M141.549 152.662C142.849 163.706 144.149 172.982 145.049 176.085C146.349 180.556 149.616 190.132 153.983 198.674L155.316 135.779L141.549 152.662Z" fill="#86543D"/>
<path d="M221.549 128.939C221.549 128.939 228.783 132.642 228.649 134.21C228.516 135.779 227.149 138.581 225.749 138.448C224.349 138.315 221.716 136.913 220.983 135.278C220.249 133.643 219.883 128.405 221.549 128.939Z" fill="#FFEDE5"/>
<path d="M221.916 134.377C221.916 134.377 229.149 138.081 229.016 139.649C228.883 141.217 227.516 144.02 226.116 143.887C224.716 143.753 222.083 142.352 221.349 140.717C220.616 139.082 220.249 133.843 221.916 134.377Z" fill="#FFEDE5"/>
<path d="M221.916 122.332C221.916 122.332 229.149 126.036 229.016 127.604C228.883 129.172 227.516 131.975 226.116 131.842C224.716 131.708 222.083 130.307 221.349 128.672C220.616 127.037 220.249 121.765 221.916 122.332Z" fill="#FFEDE5"/>
<path d="M166.016 190.299C165.949 190.299 165.916 190.299 165.849 190.265C165.683 190.199 165.616 189.965 165.716 189.832L172.249 176.919C172.316 176.752 172.549 176.685 172.683 176.786C172.849 176.852 172.916 177.086 172.816 177.219L166.283 190.132C166.249 190.232 166.149 190.299 166.016 190.299Z" fill="#472938"/>
<path d="M72.3824 208.617C72.4157 219.461 67.1157 231.072 67.1157 231.072C67.1157 231.072 103.816 251.692 150.416 233.941C150.416 233.941 144.716 219.26 145.449 203.912C107.782 196.905 72.3824 208.617 72.3824 208.617Z" fill="#FFEDE5"/>
<path d="M38.4158 120.998C35.6824 125.102 46.2158 145.522 56.2824 166.175C65.4491 145.655 60.0824 120.731 56.9824 110.02C49.8824 112.756 41.1824 116.793 38.4158 120.998Z" fill="#FFEDE5"/>
<path d="M145.449 203.945C145.516 202.344 145.682 200.742 145.916 199.141C146.049 198.173 146.216 197.139 146.382 196.038C116.482 187.863 80.8825 197.205 70.8491 200.175C71.8158 203.478 72.3825 206.348 72.3825 208.617C72.3825 208.617 107.782 196.905 145.449 203.945Z" fill="#FEF9EF"/>
<path d="M56.2823 167.276C56.149 167.276 56.049 167.209 55.9823 167.076L48.549 151.06C48.4823 150.894 48.549 150.693 48.7157 150.627C48.8823 150.56 49.0823 150.627 49.149 150.793L56.5823 166.809C56.649 166.976 56.5823 167.176 56.4157 167.243C56.3823 167.276 56.3157 167.276 56.2823 167.276Z" fill="#472938"/>
<path d="M113.282 237.979C113.798 237.979 114.216 237.56 114.216 237.044C114.216 236.529 113.798 236.11 113.282 236.11C112.767 236.11 112.349 236.529 112.349 237.044C112.349 237.56 112.767 237.979 113.282 237.979Z" fill="#86543D"/>
<path d="M153.716 137.747C153.716 137.514 153.716 137.28 153.716 137.08C153.716 136.98 153.716 136.846 153.716 136.746C153.716 136.479 153.716 136.246 153.683 135.979C153.683 135.912 153.683 135.845 153.683 135.745C153.683 135.412 153.649 135.111 153.649 134.811V134.611C153.649 134.377 153.616 134.11 153.616 133.877C153.616 133.777 153.616 133.677 153.583 133.577C153.583 133.376 153.549 133.176 153.549 133.009L153.516 132.676C153.516 132.509 153.483 132.309 153.449 132.142C153.449 132.042 153.416 131.942 153.416 131.808C153.383 131.608 153.383 131.441 153.349 131.241C153.349 131.141 153.316 131.074 153.316 130.974C153.283 130.707 153.249 130.44 153.183 130.173C150.583 114.358 136.183 99.5433 136.183 99.5433C136.183 99.5433 141.783 121.798 143.583 124.401C150.149 133.944 153.816 139.683 153.349 147.29C153.383 146.89 153.416 146.523 153.449 146.122C153.449 146.022 153.449 145.922 153.449 145.822C153.483 145.522 153.483 145.221 153.516 144.954C153.516 144.854 153.516 144.721 153.549 144.621C153.549 144.354 153.583 144.087 153.583 143.787L153.616 143.453C153.616 143.153 153.649 142.886 153.649 142.619C153.649 142.519 153.649 142.452 153.649 142.352C153.683 141.618 153.716 140.884 153.716 140.15C153.716 140.05 153.716 139.983 153.716 139.883C153.716 139.616 153.716 139.349 153.716 139.082V138.748C153.716 138.515 153.716 138.281 153.716 138.048V137.747Z" fill="#FFEDE5"/>
<path d="M143.582 124.434C141.782 121.832 136.216 99.5766 136.216 99.5766H131.982L67.1156 106.517C67.1156 106.517 62.5489 107.851 56.9822 109.987C60.0489 120.697 65.4489 145.655 56.2822 166.142C62.3156 178.554 68.1489 191.033 70.8156 200.175C80.8489 197.172 116.449 187.863 146.349 196.038C148.316 183.425 152.116 163.339 153.349 147.323C153.816 139.716 150.149 133.977 143.582 124.434Z" fill="#FF8A00"/>
<path d="M77.9824 182.558C76.3824 182.558 74.7158 182.358 72.9491 181.924C72.7824 181.89 72.6491 181.69 72.7158 181.523C72.7491 181.357 72.9491 181.223 73.1158 181.29C79.4491 182.891 84.5824 181.056 89.9824 179.154C95.1158 177.319 100.416 175.451 107.216 176.218C120.949 177.753 143.316 174.049 143.549 174.016C143.749 173.983 143.916 174.116 143.949 174.283C143.982 174.45 143.849 174.65 143.682 174.683C143.449 174.717 120.982 178.454 107.182 176.919C100.549 176.185 95.3158 178.02 90.2491 179.822C86.1824 181.19 82.3158 182.558 77.9824 182.558Z" fill="#472938"/>
<path d="M129.249 10.623C129.249 10.623 146.649 12.358 141.416 35.514C136.182 58.67 141.349 57.6356 145.882 69.8809C150.416 82.1263 126.716 74.0183 126.716 74.0183C126.716 74.0183 138.782 92.1027 74.6491 84.2951C21.749 77.8554 57.0491 50.2618 57.0491 50.2618C57.0491 50.2618 41.149 52.3638 60.1824 35.5474C73.5824 23.7024 80.7157 -19.8402 129.249 10.623Z" fill="#3B2645"/>
<path d="M117.716 74.6856C117.716 74.6856 112.349 93.5374 119.716 97.0408C125.382 99.7435 131.982 99.5767 131.982 99.5767C131.982 99.5767 129.716 149.559 101.716 150.093C73.7157 150.627 67.1157 106.517 67.1157 106.517C67.1157 106.517 78.5157 102.513 81.9157 94.6719C85.3157 86.8308 85.4824 75.8535 85.4824 75.8535L117.716 74.6856Z" fill="#FFEDE5"/>
<path d="M131.167 60.4333C134.021 55.4863 133.956 50.1015 131.022 48.4062C128.089 46.7109 123.398 49.3469 120.544 54.294C117.691 59.241 117.755 64.6257 120.689 66.3211C123.622 68.0164 128.314 65.3804 131.167 60.4333Z" fill="#86543D"/>
<path d="M124.182 60.8054C124.082 60.8054 124.016 60.772 123.949 60.7053C123.816 60.5718 123.816 60.3716 123.949 60.2382L128.982 55.5002C129.116 55.3667 129.316 55.3667 129.449 55.5002C129.582 55.6337 129.582 55.8339 129.449 55.9673L124.416 60.7053C124.349 60.8054 124.282 60.8054 124.182 60.8054Z" fill="#472938"/>
<path d="M78.7204 62.5614C82.0167 61.7808 83.6238 56.6417 82.31 51.0829C80.9963 45.524 77.2592 41.6504 73.963 42.4309C70.6667 43.2114 69.0596 48.3505 70.3734 53.9094C71.6871 59.4683 75.4242 63.3419 78.7204 62.5614Z" fill="#FFEDE5"/>
<path d="M116.049 90.768C115.049 84.0281 117.716 74.6522 117.716 74.6522L85.449 75.8534C85.449 75.8534 85.4156 78.2891 85.0156 81.6925C85.0156 81.7258 101.116 101.245 116.049 90.768Z" fill="#86543D"/>
<path d="M77.8491 55.7338C77.7491 55.7338 77.6491 55.667 77.5824 55.5669L74.3824 50.6621C74.2824 50.4953 74.3158 50.2951 74.4824 50.195C74.6491 50.0949 74.8491 50.1283 74.9491 50.2951L78.1491 55.1999C78.2491 55.3667 78.2158 55.5669 78.0491 55.667C77.9824 55.7338 77.9158 55.7338 77.8491 55.7338Z" fill="#472938"/>
<path d="M79.9823 20.5326C79.9823 20.5326 68.5157 82.4933 95.449 88.9329C122.382 95.3725 131.982 37.5827 131.282 25.5709C130.582 13.5592 83.9823 9.92226 79.9823 20.5326Z" fill="#FFEDE5"/>
<path d="M115.816 48.8604C116.683 49.0272 117.249 49.8613 117.116 50.7289L116.949 51.6965C116.783 52.564 115.949 53.1312 115.083 52.9977C114.216 52.8309 113.649 51.9968 113.783 51.1292L113.949 50.1616C114.116 49.2941 114.949 48.6935 115.816 48.8604Z" fill="#472938"/>
<path d="M90.7157 46.0576C91.6157 46.0576 92.3157 46.7583 92.3157 47.6592V48.6268C92.3157 49.4943 91.6157 50.2284 90.7157 50.2284C89.8491 50.2284 89.1157 49.5277 89.1157 48.6268V47.6592C89.1157 46.7583 89.8157 46.0576 90.7157 46.0576Z" fill="#472938"/>
<path d="M121.682 47.192C121.682 47.192 120.482 45.3903 117.016 44.7897C113.549 44.1891 112.449 44.3893 112.416 43.2882C112.382 42.1872 120.149 40.4855 121.682 47.192Z" fill="#472938"/>
<path d="M85.6826 42.6209C85.6826 42.6209 87.4159 41.3197 90.8826 41.8869C94.3493 42.4875 95.3159 43.0213 95.7159 41.987C96.1159 40.9526 89.3493 36.7819 85.6826 42.6209Z" fill="#472938"/>
<path d="M92.2826 66.244L106.683 67.879C106.683 67.879 104.449 77.6218 98.0825 76.4874C91.7492 75.3863 92.2826 66.244 92.2826 66.244Z" fill="white"/>
<path d="M101.816 63.8417C100.816 63.8417 99.7157 63.5748 98.7157 63.1076C98.549 63.0409 98.4823 62.8407 98.549 62.6739C98.6157 62.5071 98.8156 62.4403 98.9823 62.5071C100.449 63.2077 102.082 63.3746 103.182 62.9408C103.649 62.774 103.949 62.5071 104.082 62.2068C104.516 61.1724 104.349 57.9693 104.149 54.2657L104.082 52.9644C103.716 46.1244 107.816 44.8231 107.982 44.7564C108.149 44.6896 108.349 44.7897 108.382 44.9899C108.449 45.1567 108.349 45.3569 108.149 45.3903C107.982 45.4237 104.382 46.6249 104.716 52.931L104.782 54.2323C104.982 58.1695 105.182 61.3059 104.649 62.4737C104.449 62.9408 104.016 63.3412 103.382 63.5748C102.982 63.775 102.416 63.8417 101.816 63.8417Z" fill="#472938"/>
<path d="M126.716 54.9997C126.716 54.9997 128.883 38.2834 121.683 29.1411C121.683 29.1411 115.583 40.6857 105.583 36.6818C105.583 36.6818 91.8493 48.5934 77.8493 45.1234C63.8493 41.6533 68.816 8.88794 89.116 7.48657C109.416 6.0852 150.716 14.2599 126.716 54.9997Z" fill="#3B2645"/>
</svg>
