<svg width="243" height="292" viewBox="0 0 243 292" fill="none" xmlns="http://www.w3.org/2000/svg">
<path d="M97.7083 16.791C97.7083 16.791 100.175 0 119.075 0C137.975 0 147.142 21.4791 151.408 34.0806C155.675 46.6822 166.675 58.5522 181.008 65.5678C195.342 72.5835 206.175 80.1311 204.342 96.0243C204.342 96.0243 235.008 119.964 176.575 124.386C118.142 128.808 89.4416 92.1341 92.975 73.2484C96.5083 54.3628 73.7083 28.7607 97.7083 16.791Z" fill="#231928"/>
<path d="M133.075 57.0892C133.075 57.0892 130.408 82.8908 141.742 85.1517C141.742 85.1517 146.442 131.468 120.008 131.468C93.575 131.468 96.275 86.5482 96.275 86.5482C96.275 86.5482 107.542 83.589 106.642 58.6852C105.742 33.7814 133.442 39.7663 133.075 57.0892Z" fill="#4A1C08"/>
<path d="M125.208 59.3834C127.441 50.9048 115.941 49.1759 108.208 48.9431C107.108 51.4368 106.475 54.662 106.608 58.6852C106.775 62.2096 106.608 65.7673 106.175 69.2917C110.575 69.6242 122.508 69.591 125.208 59.3834Z" fill="#4C3429"/>
<path d="M103.425 51.4711C105.81 50.6533 106.501 46.3863 104.969 41.9406C103.437 37.4949 100.261 34.554 97.8763 35.3719C95.4912 36.1897 94.7997 40.4567 96.3318 44.9024C97.8639 49.3481 101.04 52.289 103.425 51.4711Z" fill="#4C3429"/>
<path d="M143.125 44.8627C144.657 40.417 143.966 36.15 141.58 35.3321C139.195 34.5143 136.02 37.4552 134.488 41.9009C132.955 46.3466 133.647 50.6136 136.032 51.4315C138.417 52.2494 141.593 49.3084 143.125 44.8627Z" fill="#4C3429"/>
<path d="M99.1416 20.9471C99.1416 20.9471 97.3083 65.4681 118.442 65.5679C134.875 65.6344 139.575 45.6515 139.842 23.1416C140.108 0.63176 99.4083 3.65744 99.1416 20.9471Z" fill="#4A1C08"/>
<path d="M120.109 52.5341C116.575 52.5341 113.475 50.4061 113.442 50.3728C113.275 50.2731 113.242 50.0736 113.375 49.9074C113.475 49.7411 113.675 49.7079 113.842 49.8409C113.909 49.8741 119.909 53.9638 124.342 50.4726C124.475 50.3728 124.709 50.3728 124.809 50.5391C124.909 50.7053 124.909 50.9048 124.742 51.0046C123.242 52.1351 121.642 52.5341 120.109 52.5341Z" fill="#291A22"/>
<path d="M106.375 34.1139C106.375 34.1139 109.142 35.8761 113.808 34.4464C113.808 34.4131 109.842 38.4696 106.375 34.1139Z" fill="#291A22"/>
<path d="M132.908 34.4796C132.908 34.4796 130.142 36.2419 125.475 34.8121C125.475 34.8121 129.442 38.8686 132.908 34.4796Z" fill="#291A22"/>
<path d="M104.775 28.6942C104.775 28.6942 108.275 24.8373 113.375 26.0343C115.975 26.6328 114.975 23.4408 110.275 23.6403C105.575 23.8398 104.775 28.6942 104.775 28.6942Z" fill="#291A22"/>
<path d="M134.775 28.6942C134.775 28.6942 131.275 24.8373 126.175 26.0343C123.575 26.6328 124.575 23.4408 129.275 23.6403C133.975 23.8398 134.775 28.6942 134.775 28.6942Z" fill="#291A22"/>
<path d="M119.308 45.0863C118.308 45.0863 116.175 44.3548 115.442 43.6233C115.175 43.3573 115.075 43.0913 115.108 42.8253C115.175 42.4263 115.475 41.1628 115.908 39.5668C116.475 37.2726 117.208 34.4464 117.442 33.0499C117.675 31.72 117.442 30.3235 116.808 29.1265C116.708 28.9603 116.775 28.7607 116.942 28.661C117.108 28.5613 117.308 28.6278 117.408 28.794C118.108 30.124 118.375 31.6535 118.108 33.1497C117.875 34.5794 117.142 37.4389 116.575 39.7331C116.175 41.2626 115.842 42.5925 115.808 42.925C115.808 42.9583 115.842 43.0248 115.942 43.1578C116.642 43.856 118.842 44.521 119.475 44.4213C120.308 44.2883 122.042 43.4903 122.642 42.792C122.775 42.659 122.975 42.659 123.108 42.7588C123.242 42.8918 123.242 43.0913 123.142 43.2243C122.408 44.0223 120.542 44.92 119.575 45.053C119.442 45.0862 119.375 45.0863 119.308 45.0863Z" fill="#291A22"/>
<path d="M99.4419 32.3517C99.4419 32.3517 100.775 21.7451 104.075 17.8549C104.075 17.8549 109.609 15.3944 118.409 20.6146C127.209 25.8348 133.375 30.2237 141.542 28.927C141.542 28.927 142.309 3.62415 121.209 4.98737C100.109 6.3506 95.7752 17.3562 99.4419 32.3517Z" fill="#231928"/>
<path d="M238.875 188.69C238.542 188.158 237.542 189.056 237.542 189.056C237.542 189.056 236.508 187.892 233.708 188.724C230.908 189.555 222.608 196.67 222.608 196.67C218.875 196.604 212.775 200.261 212.775 200.261C212.775 200.261 208.175 198.366 204.008 192.115C199.842 185.864 195.308 182.805 195.308 182.805C195.308 182.805 185.542 143.637 178.942 119.199C172.242 122.025 163.542 133.164 157.342 142.141C157.475 146.364 157.608 149.057 157.608 149.057C157.608 149.057 179.342 206.579 182.142 208.308C184.942 210.037 216.908 213.893 217.242 213.661C217.575 213.428 220.508 214.193 221.708 213.661C222.908 213.129 224.375 213.993 225.842 212.996C227.308 211.998 229.842 213.528 230.875 212.563C231.908 211.599 233.708 211.998 234.908 211.433C236.108 210.868 242.808 201.425 242.942 199.729C243.075 198.033 239.208 189.222 238.875 188.69Z" fill="#4A1C08"/>
<path d="M162.942 130.67C162.942 130.67 174.309 150.021 165.309 169.073L157.575 148.991L162.942 130.67Z" fill="#4C3429"/>
<path d="M178.908 119.133C176.542 110.355 174.575 103.472 173.608 100.978C169.942 91.4026 163.175 90.9704 163.175 90.9704C156.508 91.0701 156.842 126.713 157.308 142.075C163.508 133.097 172.208 121.992 178.908 119.133Z" fill="#8A510F"/>
<path d="M187.909 184.833C187.775 184.833 187.642 184.734 187.575 184.601C187.542 184.434 187.642 184.235 187.809 184.202L194.342 182.473C194.509 182.439 194.709 182.539 194.742 182.705C194.775 182.872 194.675 183.071 194.509 183.104L187.975 184.833C187.975 184.833 187.942 184.833 187.909 184.833Z" fill="#291A22"/>
<path d="M220.242 207.476C220.075 207.476 219.908 207.343 219.908 207.144C219.742 203.087 214.942 202.921 214.742 202.921C214.542 202.921 214.408 202.755 214.408 202.589C214.408 202.389 214.575 202.256 214.742 202.256C214.808 202.256 220.341 202.456 220.541 207.111C220.608 207.31 220.442 207.476 220.242 207.476C220.275 207.476 220.275 207.476 220.242 207.476Z" fill="#291A22"/>
<path d="M218.775 210.502C218.741 210.502 218.675 210.502 218.641 210.469C218.475 210.402 218.408 210.203 218.475 210.037C218.875 209.172 222.475 201.392 223.975 200.394C225.208 199.563 226.708 199.829 227.308 200.361C227.708 200.693 227.575 201.026 227.541 201.126C227.375 201.491 225.441 206.279 224.475 208.74C224.408 208.906 224.208 209.006 224.041 208.939C223.875 208.873 223.775 208.673 223.841 208.507C223.941 208.208 226.541 201.757 226.908 200.926C226.841 200.86 226.675 200.727 226.341 200.66C226.075 200.594 225.208 200.427 224.341 200.993C223.208 201.757 220.141 208.008 219.041 210.369C219.008 210.436 218.908 210.502 218.775 210.502Z" fill="#291A22"/>
<path d="M229.308 208.008C229.108 208.008 228.975 207.875 228.975 207.676C228.975 207.609 228.975 207.609 229.908 204.318C230.675 201.624 231.908 197.236 232.042 196.537C231.842 196.338 230.908 195.939 230.275 196.138C229.775 196.304 228.242 198.565 227.108 200.56C227.008 200.727 226.808 200.76 226.642 200.693C226.475 200.594 226.442 200.394 226.508 200.228C227.108 199.197 229.108 195.806 230.042 195.473C230.842 195.207 231.875 195.573 232.342 195.906C232.575 196.072 232.708 196.271 232.708 196.438C232.708 196.637 232.242 198.333 230.542 204.451C230.108 206.013 229.675 207.51 229.642 207.676C229.642 207.875 229.475 208.008 229.308 208.008Z" fill="#291A22"/>
<path d="M234.008 207.31C233.975 207.31 233.975 207.31 233.942 207.31C233.775 207.277 233.642 207.077 233.675 206.911C234.842 201.724 236.542 193.811 236.575 192.946C236.442 192.747 235.842 192.414 234.808 192.414C234.242 192.414 232.808 194.31 231.842 196.072C231.742 196.238 231.542 196.305 231.375 196.205C231.208 196.105 231.142 195.906 231.242 195.739C231.775 194.808 233.575 191.749 234.808 191.749C235.975 191.749 236.942 192.148 237.208 192.714C237.275 192.847 237.442 193.212 234.308 207.044C234.308 207.21 234.175 207.31 234.008 207.31Z" fill="#291A22"/>
<path d="M236.508 192.747C236.375 192.747 236.242 192.647 236.175 192.514C235.642 190.818 237.208 188.923 237.275 188.857C237.408 188.724 237.608 188.69 237.742 188.823C237.875 188.956 237.908 189.156 237.775 189.289C237.775 189.322 236.375 190.985 236.808 192.348C236.875 192.514 236.775 192.714 236.575 192.78C236.575 192.747 236.542 192.747 236.508 192.747Z" fill="#291A22"/>
<path d="M234.742 204.085C234.675 204.085 234.609 204.052 234.575 204.018C234.409 203.919 234.375 203.719 234.475 203.553L237.209 199.43L236.409 194.443C236.375 194.276 236.509 194.077 236.675 194.077C236.842 194.044 237.042 194.177 237.042 194.343L237.909 199.596L235.042 203.952C234.942 204.018 234.842 204.085 234.742 204.085Z" fill="#291A22"/>
<path d="M3.57499 194.243C3.87499 193.711 4.90832 194.542 4.90832 194.542C4.90832 194.542 5.90832 193.345 8.74166 194.077C11.575 194.808 20.1417 201.558 20.1417 201.558C23.8417 201.358 30.1417 204.75 30.1417 204.75C30.1417 204.75 34.675 202.655 38.6083 196.238C42.5416 189.821 46.9417 186.562 46.9417 186.562C46.9417 186.562 55.1083 147.062 60.7416 122.325C67.5416 124.885 76.675 135.658 83.2416 144.369C83.275 148.592 83.275 151.285 83.275 151.285C83.275 151.285 63.875 209.604 61.1416 211.466C58.4083 213.328 26.6083 218.415 26.3083 218.216C26.0083 218.016 23.075 218.881 21.8417 218.382C20.6083 217.883 19.2083 218.848 17.675 217.883C16.1417 216.919 13.7083 218.548 12.6083 217.651C11.5083 216.753 9.77499 217.185 8.50832 216.686C7.24166 216.188 0.208326 207.011 0.00832601 205.315C-0.191674 203.619 3.27499 194.775 3.57499 194.243Z" fill="#4A1C08"/>
<path d="M77.1418 133.264C77.1418 133.264 66.5751 153.08 76.3084 171.733L83.2084 151.351L77.1418 133.264Z" fill="#4C3429"/>
<path d="M60.7085 122.358C62.7085 113.513 64.4085 106.564 65.2752 104.004C68.5418 94.2953 75.3085 93.5638 75.3085 93.5638C81.9752 93.3976 83.0418 129.041 83.2085 144.402C76.6418 135.724 67.5085 124.951 60.7085 122.358Z" fill="#8A510F"/>
<path d="M54.3418 188.358C54.3085 188.358 54.3085 188.358 54.2751 188.358L47.6751 186.895C47.5085 186.862 47.3751 186.662 47.4085 186.496C47.4418 186.33 47.6418 186.197 47.8085 186.23L54.4085 187.693C54.5751 187.726 54.7085 187.926 54.6751 188.092C54.6418 188.258 54.4751 188.358 54.3418 188.358Z" fill="#291A22"/>
<path d="M22.9085 212.264C22.7085 212.264 22.5752 212.098 22.5752 211.932C22.6085 207.244 28.1085 206.845 28.1752 206.845C28.3419 206.845 28.5085 206.978 28.5419 207.144C28.5419 207.343 28.4085 207.476 28.2419 207.51C28.0419 207.51 23.2752 207.875 23.2752 211.932C23.2419 212.131 23.1085 212.264 22.9085 212.264Z" fill="#291A22"/>
<path d="M24.5417 215.223C24.4083 215.223 24.3083 215.157 24.2417 215.057C23.075 212.763 19.7417 206.612 18.575 205.88C17.675 205.348 16.8083 205.548 16.5417 205.614C16.2417 205.714 16.075 205.847 16.0084 205.914C16.4084 206.745 19.2417 213.095 19.375 213.395C19.4417 213.561 19.375 213.76 19.2083 213.827C19.0417 213.893 18.8417 213.827 18.775 213.661C17.675 211.234 15.575 206.512 15.4084 206.146C15.275 205.914 15.375 205.614 15.6084 205.382C16.175 204.85 17.675 204.517 18.9417 205.282C20.5083 206.213 24.4083 213.86 24.8417 214.725C24.9083 214.891 24.875 215.09 24.7083 215.157C24.6417 215.223 24.575 215.223 24.5417 215.223Z" fill="#291A22"/>
<path d="M13.8748 213.129C13.7082 213.129 13.5748 213.029 13.5415 212.863C13.5082 212.696 13.0748 211.367 12.5748 209.804C10.5748 203.653 10.0415 201.924 10.0415 201.724C10.0415 201.525 10.1415 201.358 10.3748 201.192C10.8415 200.826 11.8415 200.427 12.6748 200.66C13.6415 200.926 15.7748 204.251 16.4082 205.249C16.5082 205.415 16.4415 205.614 16.3082 205.714C16.1415 205.814 15.9415 205.747 15.8415 205.614C14.6082 203.653 12.9748 201.458 12.5082 201.325C11.8415 201.126 10.9415 201.591 10.7415 201.791C10.9082 202.389 12.3415 206.911 13.2415 209.638C14.2415 212.73 14.2415 212.73 14.2415 212.796C14.2415 212.963 14.0748 213.129 13.8748 213.129C13.9082 213.129 13.9082 213.129 13.8748 213.129Z" fill="#291A22"/>
<path d="M9.17481 212.663C9.04148 212.663 8.90815 212.563 8.84148 212.43C5.17481 198.698 5.34148 198.333 5.37482 198.2C5.60815 197.601 6.54148 197.169 7.74148 197.136H7.77482C9.00815 197.136 10.9081 200.095 11.4748 200.993C11.5748 201.159 11.5081 201.358 11.3748 201.458C11.2081 201.558 11.0081 201.491 10.9081 201.358C9.87481 199.663 8.37482 197.801 7.80815 197.801C6.80815 197.834 6.20815 198.2 6.07481 198.399C6.14148 199.264 8.17482 207.111 9.54148 212.231C9.57482 212.397 9.47482 212.597 9.30815 212.63C9.20815 212.63 9.17481 212.663 9.17481 212.663Z" fill="#291A22"/>
<path d="M6.10855 198.233C6.07521 198.233 6.04188 198.233 6.00855 198.233C5.84188 198.2 5.70855 198 5.77521 197.834C6.14188 196.438 4.70854 194.842 4.67521 194.808C4.54188 194.675 4.57521 194.476 4.70855 194.343C4.84188 194.21 5.04188 194.243 5.17521 194.376C5.24188 194.443 6.87521 196.271 6.40855 198C6.37521 198.133 6.24188 198.233 6.10855 198.233Z" fill="#291A22"/>
<path d="M8.3083 209.438C8.2083 209.438 8.1083 209.405 8.04163 209.305L5.0083 205.082L5.64164 199.796C5.67497 199.629 5.84163 199.496 6.0083 199.496C6.17497 199.53 6.3083 199.696 6.3083 199.862L5.7083 204.883L8.6083 208.906C8.7083 209.039 8.67497 209.272 8.54163 209.372C8.44163 209.438 8.37497 209.438 8.3083 209.438Z" fill="#291A22"/>
<path d="M141.708 85.1518L163.175 90.9704C163.175 90.9704 160.575 125.583 165.008 132.732C169.442 139.88 166.975 156.139 161.608 164.219C161.608 164.219 153.008 191.816 155.342 198.299C157.675 204.783 165.508 219.114 165.508 219.114C165.508 219.114 130.542 236.802 79.9418 221.075C79.9418 221.075 89.9752 199.995 88.4085 191.916C86.8418 183.836 76.0085 161.326 76.1418 150.686C76.2752 140.047 79.6752 111.652 74.7085 93.6968L96.1752 86.5482C96.1752 86.5482 96.5418 128.708 120.975 128.708C145.408 128.708 141.708 85.1518 141.708 85.1518Z" fill="#8A510F"/>
<path d="M161.642 164.219C161.642 164.219 158.975 169.539 142.042 171.766C142.042 171.766 158.342 172.997 156.709 182.772L161.642 164.219Z" fill="#312330"/>
<path d="M78.4751 162.723C78.4751 162.723 82.4751 170.204 100.575 171.899C100.575 171.899 80.7418 168.907 84.4418 179.746L78.4751 162.723Z" fill="#312330"/>
<path d="M76.2418 152.548C76.0751 152.548 75.9085 152.415 75.9085 152.249C75.8751 151.684 75.8418 151.185 75.8751 150.686C75.9085 148.292 76.1085 145.034 76.3085 141.243C76.6085 136.057 76.9751 129.606 77.0751 122.99C77.0751 122.79 77.2085 122.657 77.4085 122.657C77.6085 122.657 77.7418 122.823 77.7418 122.99C77.6418 129.606 77.2752 136.09 76.9752 141.277C76.7418 145.067 76.5751 148.326 76.5418 150.72C76.5418 151.185 76.5418 151.684 76.5751 152.216C76.5751 152.349 76.4418 152.515 76.2418 152.548Z" fill="#291A22"/>
<path d="M165.008 133.064C164.908 133.064 164.775 132.998 164.708 132.898C163.242 130.537 162.375 125.118 162.142 116.805C162.142 116.606 162.275 116.473 162.475 116.473C162.642 116.473 162.808 116.606 162.808 116.805C163.042 125.018 163.875 130.338 165.275 132.565C165.375 132.732 165.308 132.931 165.175 133.031C165.142 133.031 165.075 133.064 165.008 133.064Z" fill="#291A22"/>
<path d="M81.1085 218.615C81.1085 218.615 99.9418 225.763 121.975 224.999C144.008 224.234 188.108 208.341 208.708 211.599C229.308 214.858 227.975 223.602 227.275 227.625C226.575 231.649 183.808 291.996 146.242 291.996H88.6751C88.6751 291.996 17.9418 247.542 15.6418 234.708C13.3418 221.873 15.0085 214.193 34.7418 213.827C54.4751 213.461 75.8085 216.886 81.1085 218.615Z" fill="#231928"/>
<path d="M121.242 238.199C121.242 238.199 149.375 226.528 172.875 222.505C172.875 222.505 188.008 245.913 183.575 265.696C183.542 265.696 129.742 253.926 121.242 238.199Z" fill="#4A1C08"/>
<path d="M121.242 238.199C121.242 238.199 189.308 247.076 183.542 265.696C177.775 284.316 121.242 238.199 121.242 238.199Z" fill="#4C3429"/>
<path d="M151.842 271.88C151.842 271.88 82.075 277.865 66.775 280.991C51.475 284.116 35.975 282.72 26.5083 286.011C17.0416 289.303 11.8083 291.83 10.675 291.963C9.54162 292.096 6.94162 277.433 11.7083 272.246C11.7083 272.246 10.2416 266.96 16.9083 262.87C23.575 258.78 34.6416 264.167 38.7416 262.87C42.8416 261.573 45.775 260.376 50.1416 261.307C54.5083 262.238 65.175 264.865 65.175 264.865C65.175 264.865 120.108 230.053 151.842 271.88Z" fill="#4A1C08"/>
<path d="M65.2085 264.865L106.642 276.103L151.842 271.88C151.842 271.88 131.242 250.734 102.809 252.696C74.3752 254.657 65.2085 264.865 65.2085 264.865Z" fill="#4C3429"/>
<path d="M79.6418 223.07C79.6418 223.07 101.042 227.393 131.975 243.552C162.909 259.711 188.509 253.095 197.542 256.22C206.575 259.345 223.709 256.918 226.509 259.345C229.309 261.773 231.142 266.029 229.475 267.857C229.475 267.857 236.942 284.947 236.242 286.078C235.542 287.208 232.942 287.109 231.709 286.843C230.475 286.577 219.609 281.19 207.109 278.963C194.609 276.735 160.142 271.947 132.675 270.55C105.209 269.154 65.2085 266.394 65.2085 266.394C65.2085 266.394 66.1418 232.779 79.6418 223.07Z" fill="#4A1C08"/>
<path d="M227.208 268.556C226.142 268.556 224.708 268.356 222.875 267.724C222.709 267.658 222.609 267.458 222.675 267.292C222.742 267.126 222.942 267.026 223.109 267.092C227.242 268.556 229.242 267.558 229.275 267.558C229.442 267.458 229.642 267.525 229.708 267.691C229.808 267.857 229.742 268.057 229.575 268.123C229.542 268.123 228.775 268.556 227.208 268.556Z" fill="#291A22"/>
<path d="M15.0748 273.277C12.7415 273.277 11.6082 272.545 11.5415 272.512C11.3748 272.412 11.3415 272.213 11.4415 272.047C11.5415 271.88 11.7415 271.847 11.9082 271.947C11.9082 271.947 13.1082 272.678 15.4415 272.579C17.8748 272.512 20.5082 271.315 20.5415 271.315C20.7082 271.249 20.9082 271.315 20.9748 271.481C21.0415 271.648 20.9748 271.847 20.8082 271.914C20.7082 271.98 18.0082 273.144 15.4748 273.244C15.3415 273.277 15.2082 273.277 15.0748 273.277Z" fill="#291A22"/>
</svg>
