<svg width="349" height="263" viewBox="0 0 349 263" fill="none" xmlns="http://www.w3.org/2000/svg">
<path fill-rule="evenodd" clip-rule="evenodd" d="M172.418 257.733C154.057 254.451 138.191 243.255 119.64 241.323C90.4308 238.283 47.6928 268.531 32.667 243.185C16.2989 215.575 75.2261 186.471 68.4976 155.055C61.9011 124.254 4.28444 122.988 0.233628 91.747C-3.11913 65.8895 30.3622 48.3127 53.0038 35.561C73.2949 24.1331 97.6536 24.26 120.911 23.7818C138.574 23.4186 155.117 36.7015 172.418 33.1057C195.893 28.2267 211.354 -0.293262 235.324 0.00229876C258.009 0.282021 292.755 11.8042 293.04 34.5931C293.461 68.1735 224.678 85.1648 236.784 116.469C251.667 154.956 325.169 135.256 345.781 170.977C359.031 193.939 328.4 223.001 307.953 239.808C288.064 256.155 260.567 258.592 235.089 261.961C214.067 264.742 193.293 261.465 172.418 257.733Z" fill="url(#paint0_linear_255_4390)"/>
<path d="M211.231 11.3478C211.231 11.3478 229.702 15.8013 237.015 24.3961C244.328 32.9908 241.814 55.1433 239.907 67.8957C238.001 80.6481 232.89 89.8673 238.938 94.3208C244.985 98.7743 247.154 94.6495 247.154 94.6495C247.154 94.6495 238.938 108.651 230.277 110.574C221.617 112.496 209.571 101.65 207.665 92.1023C205.758 82.5544 204.477 68.2079 206.021 58.3314C207.566 48.4548 210.59 45.1024 212.118 38.4139C213.646 31.7254 212.43 20.5835 212.43 20.5835L211.231 11.3478Z" fill="#3B2645"/>
<path d="M184.478 252.938C221.417 252.938 251.362 227.841 251.362 196.883C251.362 165.924 221.417 140.828 184.478 140.828C147.538 140.828 117.593 165.924 117.593 196.883C117.593 227.841 147.538 252.938 184.478 252.938Z" fill="#FF8A00"/>
<path d="M127.749 65.0694L126.287 64.0999L119.467 53.8782L124.923 42.8677L137.182 42.0625L138.645 43.0485L127.749 65.0694Z" fill="#393762"/>
<path d="M140.008 64.2804L127.749 65.0692L120.929 54.8475L126.368 43.8371L138.644 43.0482L145.448 53.2699L140.008 64.2804Z" fill="#636183"/>
<path d="M169.523 60.4187C166.458 63.8001 163.84 67.5613 161.734 71.6099C157.593 79.1694 147.125 89.6868 145.185 91.8232C144.272 92.972 143.101 93.8896 141.767 94.5019C139.921 89.0959 138.46 83.5659 137.396 77.9533C136.426 71.3799 134.964 58.4631 134.964 58.4631L138.858 50.6736C138.858 50.6736 135.687 44.3302 134.471 43.8701C133.255 43.41 130.822 44.1002 127.174 47.2718C123.526 50.4435 122.047 53.5988 123.756 57.4771C125.465 61.3554 129.113 65.2666 128.686 71.5935C128.259 77.9204 128.456 100.089 130.642 107.386C132.827 114.682 132.597 114.699 135.572 114.699C138.546 114.699 147.075 111.034 156.032 106.482C161.277 103.862 165.73 99.891 168.932 94.9784L169.523 60.4187Z" fill="#FFEDE5"/>
<path d="M188.027 56.5343C183.94 55.8397 179.76 55.9177 175.702 56.7644C169.654 58.227 166.516 62.0889 165.299 69.106C164.083 76.1231 159.745 84.8329 162.654 91.4063C165.562 97.9798 168.208 103.025 168.455 108.333C168.573 113.399 168.337 118.468 167.748 123.501C167.267 124.507 166.718 125.479 166.105 126.41C166.105 126.41 165.612 130.272 153.517 126.886C141.422 123.501 125.958 124.471 110.001 128.102C94.0436 131.734 85.5803 134.676 84.8572 139.951C84.1342 145.226 84.1342 178.143 85.5803 187.822C86.3936 194.339 86.233 200.941 85.1037 207.411C81.0959 210.2 76.7982 212.547 72.2856 214.411C65.515 217.074 61.6531 218.52 62.8527 220.985C64.0524 223.45 68.6538 223.894 74.4548 223.894C80.2558 223.894 88.2426 223.417 88.2426 223.417C88.2426 223.417 80.9954 228.002 76.1475 231.141C71.2996 234.28 66.731 235.019 68.9003 238.404C71.0695 241.79 91.9072 240.82 96.9523 240.82C101.997 240.82 107.831 238.881 108.308 236.712C108.784 234.543 106.862 227.032 106.862 224.14C106.862 221.248 106.139 208.413 109.031 202.612C111.923 196.811 116.295 179.885 116.048 173.36C115.802 166.836 115.325 162.728 115.325 162.728C115.325 162.728 143.098 166.541 153.944 170.402C164.79 174.264 188.997 177.42 200.369 171.865C211.741 166.31 216.326 159.523 214.633 149.86C212.94 140.198 208.339 133.904 209.555 122.531C210.771 111.159 210.755 100.05 213.663 94.4958C216.572 88.9413 223.096 79.0154 222.603 72.4913C222.11 65.9672 210.032 59.3445 203.984 57.0109C197.936 54.6774 188.027 56.5343 188.027 56.5343Z" fill="#FFEDE5"/>
<path d="M84.7918 140.532C84.0687 145.841 84.0687 178.724 85.5149 188.403C86.3282 194.921 86.1676 201.522 85.0383 207.992C81.0305 210.781 76.7328 213.128 72.2201 214.993C65.4495 217.655 61.5876 219.101 62.7873 221.566C63.9869 224.031 68.5883 224.475 74.3894 224.475C79.3194 224.475 85.7778 224.13 87.6348 224.015C88.8016 223.637 91.0859 222.832 91.0859 222.372C91.0859 221.911 93.0086 204.295 93.2551 187.302C93.5016 170.31 95.4408 150.688 95.4408 150.688L93.2715 141.979C91.2813 140.109 89.1374 138.411 86.8624 136.901C85.7567 137.822 85.0213 139.112 84.7918 140.532Z" fill="#FFEDE5"/>
<path d="M90.5928 215.962C90.5928 215.962 89.8698 214.319 88.6537 211.131C88.4395 210.303 87.9793 209.56 87.3337 209C86.6882 208.439 85.8878 208.088 85.0383 207.992C81.0305 210.781 76.7328 213.128 72.2201 214.993C65.4495 217.655 61.5876 219.101 62.7873 221.566C63.9869 224.031 68.5883 224.475 74.3894 224.475C79.3194 224.475 85.7778 224.13 87.6348 224.015C88.8016 223.637 91.0859 222.832 91.0859 222.372C91.0859 222.109 91.3159 219.742 91.6446 216.077L90.5928 215.962Z" fill="#3B2645"/>
<path d="M183.919 134.961C177.692 131.683 172.27 127.064 168.044 121.436C167.913 122.866 167.798 123.868 167.732 124.082C167.251 125.088 166.702 126.06 166.089 126.991C166.089 126.991 165.596 130.853 153.501 127.467C141.406 124.082 125.942 125.052 109.985 128.684C94.0276 132.315 85.5644 135.257 84.8413 140.532C84.8413 140.779 84.8413 141.091 84.7427 141.452C85.6736 142.81 86.6775 144.115 87.75 145.364C89.8555 147.723 92.4915 149.548 95.4409 150.688C96.1804 154.073 100.765 164.706 107.536 164.706C114.307 164.706 115.276 163.26 115.276 163.26C115.276 163.26 143.098 167.122 153.944 170.983C164.791 174.845 188.997 178.001 200.369 172.446C211.741 166.892 216.326 160.104 214.633 150.442C213.882 146.729 212.877 143.072 211.626 139.497C204.264 139.891 192.399 139.645 183.919 134.961Z" fill="#3B2645"/>
<path d="M167.748 124.082C167.267 125.088 166.718 126.06 166.105 126.991C166.105 126.991 165.612 130.853 153.517 127.468C141.422 124.082 125.958 125.052 110.001 128.684C94.0437 132.316 85.5804 135.257 84.8573 140.532C84.7094 141.601 84.5944 143.819 84.5122 146.662C87.6916 149.028 91.4862 150.426 95.4405 150.688C97.1703 147.701 99.6666 145.231 102.671 143.532C105.676 141.833 109.08 140.968 112.531 141.025C124.758 141.025 176.441 141.979 176.441 141.979L183.344 126.252C183.344 126.252 175.127 120.451 168.373 116.671C168.159 120.385 167.863 123.672 167.748 124.082Z" fill="#3B2645"/>
<path d="M209.653 125.348C210.278 122.669 222.603 108.503 223.836 103.573C225.068 98.6432 229.587 83.6394 225.479 75.0118C221.37 66.3841 216.227 64.3299 216.227 64.3299C212.452 61.5554 208.344 59.2642 204 57.51C197.969 55.0943 188.043 57.0335 188.043 57.0335C183.957 56.3388 179.776 56.4168 175.718 57.2635C169.671 58.7261 166.532 62.588 165.316 69.6051C164.1 76.6222 159.745 85.4142 162.653 91.9876C165.562 98.561 168.208 103.606 168.454 108.914C168.573 113.981 168.337 119.049 167.748 124.082C167.267 125.088 166.718 126.06 166.104 126.991V127.09C167.896 130.787 172.004 138.593 176.523 141.978C180.766 142.109 184.845 143.64 188.125 146.333C193.055 150.688 199.021 151.641 205.545 151.641C208.641 151.518 211.705 150.965 214.649 149.998C213.006 141.387 209.21 135.389 209.473 125.89C209.569 125.723 209.63 125.539 209.653 125.348Z" fill="#FF8A00"/>
<path d="M207.024 42.5062C207.024 42.5062 213.088 33.1883 214.058 25.2181C215.027 17.2478 213.581 9.81983 204.871 5.1527C196.162 0.485573 183.343 5.1527 179.481 9.81983C175.62 14.487 176.096 23.3611 175.127 25.3002C174.157 27.2394 169.802 30.3782 170.295 31.5943C170.788 32.8104 173.927 34.4702 173.927 34.4702L175.57 41.9639C176.047 44.1495 177.493 47.0418 179.186 47.0418C181.486 46.8019 183.77 46.4177 186.022 45.8915C186.022 45.8915 186.499 53.4509 185.069 56.4911C183.146 60.5995 173.237 85.2169 177.592 87.7149C181.946 90.2128 200.369 70.8869 205.677 66.7785C210.985 62.6701 204.033 57.5922 204.033 57.5922C204.033 57.5922 201.65 57.4936 202.62 51.446C203.045 48.0569 204.596 44.9088 207.024 42.5062Z" fill="#FFEDE5"/>
<path d="M96.8869 241.352C101.965 241.352 107.766 239.413 108.243 237.244C108.637 235.502 107.487 230.391 106.994 226.907C105.993 227.266 104.948 227.487 103.888 227.565C101.293 227.654 98.6971 227.411 96.1639 226.842C96.1065 225.841 95.8612 224.859 95.4408 223.949C94.7177 222.306 91.1023 222.306 91.1023 222.306L87.109 224.048H88.1936C88.1936 224.048 80.9464 228.633 76.0985 231.772C71.2506 234.91 66.6821 235.65 68.8513 239.035C71.0205 242.421 91.809 241.352 96.8869 241.352Z" fill="#3B2645"/>
<path d="M217.18 26.8943C218.133 18.924 213.581 9.8198 204.872 5.15267C197.592 1.30722 187.468 3.90372 182.045 7.53554C183.129 7.73186 184.105 8.316 184.79 9.17889C188.29 13.0079 186.433 20.0086 189.572 23.1967C192.711 26.3848 194.338 25.4317 194.338 25.4317C194.338 25.4317 197.854 19.6964 199.432 25.4317C201.01 31.167 198.808 33.6485 197.214 34.3387C196.079 34.7656 194.907 35.0847 193.713 35.2918C193.713 35.2918 202.259 42.8348 207.024 42.5719C207.024 42.5061 216.211 34.881 217.18 26.8943Z" fill="#3B2645"/>
<path d="M131.94 68.5203L130.494 67.5342L123.674 57.3126L129.113 46.3021L141.373 45.5133L142.835 46.4829L131.94 68.5203Z" fill="#393762"/>
<path d="M144.215 67.7151L131.939 68.5203L125.136 58.2822L130.575 47.2717L142.835 46.4829L149.655 56.7046L144.215 67.7151Z" fill="#636183"/>
<path d="M229.521 160.104C227.814 156.084 226.824 151.796 226.596 147.434C226.596 142.981 221.485 131.494 221.485 128.946C222.177 118.94 223.406 108.978 225.166 99.1032C227.96 89.7032 227.73 79.5308 225.479 75.0116C223.227 70.4923 214.172 71.314 211.707 78.7091C209.242 86.1042 209.39 100.451 209.39 100.451C208.569 106.893 208.01 121.256 207.747 129.883C207.566 137.558 209.193 145.298 212.874 150.82C218.084 158.642 220.549 168.896 222.143 168.896C223.737 168.896 232.184 167.845 232.184 167.845C232.184 167.845 232.627 166.974 229.521 160.104Z" fill="#FFEDE5"/>
<path d="M234.074 176.226C234.074 176.226 235.718 167.319 235.356 165.396C234.995 163.474 229.621 164.772 227.386 164.772C225.151 164.772 223.573 164.443 223.886 165.725C224.198 167.007 228.668 167.368 228.668 167.368L230.311 167.993L234.074 176.226Z" fill="#FFEDE5"/>
<path d="M245.002 169.915H212.2V174.369H245.002V169.915Z" fill="#636183"/>
<path d="M257.097 160.055H242.767V183.621H257.097V160.055Z" fill="#636183"/>
<path d="M212.825 160.055H198.495V183.621H212.825V160.055Z" fill="#636183"/>
<path d="M218.248 166.415L220.039 175.157C220.157 175.741 220.48 176.264 220.951 176.629C221.422 176.994 222.008 177.177 222.603 177.146C224.838 177.014 228.305 176.817 230.343 176.604C233.531 176.291 234.484 177.245 234.813 174.96C234.961 173.81 235.207 171.674 235.421 169.866C235.464 169.47 235.421 169.07 235.295 168.692C235.17 168.314 234.964 167.968 234.693 167.676C234.422 167.385 234.091 167.155 233.723 167.003C233.356 166.85 232.96 166.779 232.562 166.793C230.08 166.793 226.958 166.99 226.202 166.99C224.936 167.056 220.795 163.555 218.248 166.415Z" fill="#FFEDE5"/>
<defs>
<linearGradient id="paint0_linear_255_4390" x1="1.71951e-05" y1="3.81978e-05" x2="463.048" y2="47.5477" gradientUnits="userSpaceOnUse">
<stop stop-color="#C150F6"/>
<stop offset="1" stop-color="#EEA4CE"/>
</linearGradient>
</defs>
</svg>
