<svg width="269" height="324" viewBox="0 0 269 324" fill="none" xmlns="http://www.w3.org/2000/svg">
<path d="M102.503 89.16L85.3026 94.6588C85.3026 94.6588 80.0692 114.854 81.7026 118.453C83.3359 122.053 92.5359 124.785 96.9026 122.619C101.269 120.453 116.069 106.29 116.069 106.29L102.503 89.16Z" fill="#FFEDE5"/>
<path d="M118.269 69.6644C118.269 69.6644 107.269 82.1282 102.502 89.16L114.769 108.322L127.602 96.7916C127.602 96.7916 125.469 64.8988 118.269 69.6644Z" fill="#FF8A00"/>
<path d="M100.536 89.7932V108.989L106.069 94.7254L102.503 89.16L100.536 89.7932Z" fill="#86543D"/>
<path d="M99.7027 78.6624C101.203 79.029 101.669 77.9959 102.903 79.9621C104.136 81.9283 106.736 89.6266 106.036 90.793C105.336 91.9594 97.5694 99.4577 97.0027 99.4577C96.436 99.4577 95.0027 97.3582 95.3027 96.625C95.3027 96.625 93.4694 97.7248 92.2694 97.5248C92.2694 97.5248 89.6027 98.9245 88.536 98.6579C87.4694 98.3913 81.236 89.1933 82.7027 86.7606C84.1694 84.3278 85.1027 85.5942 85.9694 84.6277C86.836 83.6613 88.3027 82.0616 90.0694 82.2282C91.836 82.3949 92.636 79.6622 95.2027 80.0621C97.7694 80.462 96.3694 77.8292 99.7027 78.6624Z" fill="#FFEDE5"/>
<path d="M95.2693 96.9583C95.136 96.9583 95.036 96.8916 94.9693 96.7916C94.8693 96.625 94.936 96.425 95.1027 96.3584C95.136 96.3584 98.136 94.7587 98.936 93.5923L99.0027 93.5257C99.036 93.5257 100.736 91.9927 101.303 90.8263L98.4027 84.2611C98.336 84.0945 98.4027 83.8945 98.5693 83.8279C98.736 83.7612 98.936 83.8279 99.0027 83.9945L102.003 90.8263L101.936 90.9596C101.436 92.226 99.7027 93.7923 99.436 94.0256C98.5027 95.3253 95.5027 96.8916 95.3693 96.9583C95.3693 96.9249 95.336 96.9583 95.2693 96.9583Z" fill="#472938"/>
<path d="M92.236 97.858C92.1027 97.858 92.0027 97.7914 91.936 97.6581L88.236 90.1265C88.1693 89.9598 88.236 89.7599 88.4027 89.6932C88.5693 89.6266 88.7693 89.6932 88.836 89.8598L92.536 97.3915C92.6027 97.5581 92.536 97.7581 92.3693 97.8247C92.336 97.858 92.3027 97.858 92.236 97.858Z" fill="#472938"/>
<path d="M97.2361 95.7918C97.1027 95.7918 97.0027 95.7252 96.9361 95.5919L93.4694 88.1269C93.4027 87.9603 93.4694 87.7603 93.6361 87.6936C93.8027 87.627 94.0027 87.6936 94.0694 87.8603L97.5361 95.3253C97.6027 95.4919 97.5361 95.6918 97.3694 95.7585C97.3361 95.7918 97.2694 95.7918 97.2361 95.7918Z" fill="#472938"/>
<path d="M96.9691 99.791C96.4358 99.791 95.8358 98.9578 95.6024 98.6246C95.4358 98.3913 95.0691 97.7914 94.9358 97.1915C94.3024 97.4915 93.2024 97.9581 92.3024 97.8914C91.7691 98.158 89.5024 99.2578 88.4358 98.9912C87.8358 98.8579 86.7358 97.3915 86.1358 96.525C86.0358 96.3584 86.0691 96.1585 86.2024 96.0585C86.3358 95.9585 86.5691 95.9918 86.6691 96.1251C87.7025 97.6248 88.4024 98.258 88.5691 98.3246C89.2691 98.4913 91.0691 97.7248 92.0691 97.2249L92.1691 97.1915H92.2691C93.3691 97.3582 95.0691 96.3251 95.1024 96.3251L95.9691 95.8252L95.6024 96.7583C95.5691 96.8583 95.5691 97.1916 95.9024 97.8247C96.3024 98.5579 96.7691 99.0245 96.9691 99.1245C97.8024 98.6579 103.236 93.5257 105.169 91.4595C103.369 91.8927 101.636 91.1262 101.569 91.0929C101.402 91.0263 101.336 90.8263 101.402 90.6597C101.469 90.493 101.669 90.4264 101.836 90.493C101.869 90.493 104.036 91.4595 105.869 90.493C106.102 90.3597 106.269 90.4264 106.336 90.5264C106.436 90.593 106.502 90.7597 106.436 90.9263C106.202 91.5261 97.7691 99.791 96.9691 99.791Z" fill="#472938"/>
<path d="M155.969 49.6355L172.669 60.1332V81.895C172.669 81.895 155.303 118.02 155.969 131.051L116.203 138.482C116.203 138.482 106.669 100.224 118.269 69.6311L136.003 57.1672L155.969 49.6355Z" fill="#FF8A00"/>
<path d="M112.536 107.756C112.37 107.756 112.203 107.623 112.203 107.423C112.07 98.1913 112.803 89.5932 114.436 81.795C114.47 81.6284 114.636 81.495 114.836 81.5284C115.003 81.5617 115.136 81.7283 115.103 81.9283C113.503 89.6599 112.736 98.2246 112.903 107.389C112.87 107.589 112.736 107.756 112.536 107.756Z" fill="#472938"/>
<path d="M172.67 81.9283L159.636 79.9621L166.936 94.7254L172.67 81.9283Z" fill="#86543D"/>
<path d="M151.636 36.2719L155.969 49.6355C151.336 51.4351 147.169 54.2345 143.769 57.867C138.069 63.9323 135.869 69.6644 132.436 69.6644C129.003 69.6644 136.036 57.2005 136.036 57.2005L135.136 45.5365L151.636 36.2719Z" fill="#FFEDE5"/>
<path d="M135.569 51.4685C135.569 51.4685 143.203 50.3354 147.103 39.3712L135.103 45.5365L135.569 51.4685Z" fill="#86543D"/>
<path d="M129.902 8.97798C129.902 8.97798 122.536 44.9033 126.369 47.3694C130.202 49.8355 145.336 47.7026 150.969 37.7049C156.602 27.7071 149.536 8.97798 129.902 8.97798Z" fill="#FFEDE5"/>
<path d="M127.536 21.7418C127.536 21.7418 120.603 30.7064 121.303 31.5729C122.003 32.4394 125.803 33.6724 125.803 33.6724L127.536 21.7418Z" fill="#FFEDE5"/>
<path d="M148.336 32.2728C148.336 32.2728 144.87 30.5398 147.103 22.9749C147.103 22.9749 142.603 15.01 139.67 13.7103C136.736 12.4106 129.27 12.0107 129.27 12.0107C129.27 12.0107 127.77 1.51302 130.27 0.413264C132.77 -0.686489 155.903 -0.0533061 160.27 8.11153C161.736 10.8776 160.803 12.5439 160.803 12.5439C160.803 12.5439 163.27 15.8098 162.836 18.6092C162.403 21.4085 155.603 31.7729 155.603 31.7729L148.336 32.2728Z" fill="#3B2645"/>
<path d="M155.255 35.0046C157.572 32.6881 158.226 29.5863 156.716 28.0766C155.206 26.5669 152.103 27.221 149.786 29.5376C147.469 31.8542 146.815 34.956 148.325 36.4656C149.835 37.9753 152.937 37.3212 155.255 35.0046Z" fill="#FFEDE5"/>
<path d="M129.303 39.4378C127.736 39.4378 126.336 39.0046 126.236 38.9713C126.069 38.9046 125.969 38.738 126.036 38.538C126.103 38.3714 126.269 38.2714 126.469 38.3381C126.503 38.3381 131.036 39.8044 132.603 37.405C132.703 37.2383 132.903 37.205 133.069 37.305C133.236 37.4049 133.269 37.6049 133.169 37.7715C132.269 39.0712 130.736 39.4378 129.303 39.4378Z" fill="#472938"/>
<path d="M150.103 33.8058C150.003 33.8058 149.869 33.7391 149.836 33.6391C149.736 33.4725 149.769 33.2726 149.936 33.1726L152.636 31.4729C152.803 31.3729 153.003 31.4063 153.103 31.5729C153.203 31.7395 153.169 31.9395 153.003 32.0395L150.303 33.7391C150.236 33.7725 150.169 33.8058 150.103 33.8058Z" fill="#472938"/>
<path d="M132.136 21.7751C132.836 21.9417 133.269 22.6416 133.102 23.3081L132.902 24.2079C132.736 24.9077 132.036 25.341 131.369 25.1743C130.669 25.0077 130.236 24.3079 130.402 23.6414L130.602 22.7416C130.769 22.0417 131.436 21.6085 132.136 21.7751Z" fill="#3B2645"/>
<path d="M130.736 18.2759C130.736 18.2759 135.136 17.976 136.269 21.5752C136.269 21.5752 136.136 17.8093 133.369 17.2428C130.602 16.6762 129.702 18.1093 130.736 18.2759Z" fill="#3B2645"/>
<path d="M161.903 53.368C146.936 50.8353 156.869 82.3949 156.869 82.3949L179.269 89.16L187.569 63.6657C174.536 57.9337 161.903 53.368 161.903 53.368Z" fill="#FF8A00"/>
<path d="M182.769 127.951C182.769 127.951 174.869 130.717 174.103 131.95C173.336 133.183 174.069 137.549 174.069 137.549C173.236 138.882 172.569 140.282 172.103 141.782C171.436 144.014 173.103 143.348 175.069 145.614C177.036 147.88 178.636 147.314 179.769 148.347C180.903 149.38 183.203 149.047 184.103 149.48C185.003 149.913 186.703 151.379 187.736 151.313C188.769 151.246 191.203 147.714 193.203 143.281C195.203 138.849 194.836 135.25 195.736 129.918C196.636 124.585 217.669 90.2931 215.203 80.9952C213.969 76.3629 200.569 69.4311 187.536 63.6657L179.236 89.16L191.103 92.7592L182.769 127.951Z" fill="#FFEDE5"/>
<path d="M194.669 94.0256C194.636 94.0256 194.603 94.0256 194.569 94.0256L191.003 93.0591C190.836 93.0258 190.703 92.8259 190.769 92.6592C190.803 92.4926 191.003 92.3926 191.169 92.4259L194.736 93.3924C194.903 93.4257 195.036 93.6257 194.969 93.7923C194.969 93.9256 194.836 94.0256 194.669 94.0256Z" fill="#472938"/>
<path d="M221.77 213.432L234.736 206.934C234.736 206.934 234.436 204.401 237.036 201.535C239.636 198.669 237.703 192.037 235.27 190.971C232.836 189.904 231.636 190.637 229.536 187.205L210.77 195.336L221.77 213.432Z" fill="#FFEDE5"/>
<path d="M235.236 190.971C237.67 192.037 239.57 198.669 237.003 201.535C234.436 204.401 234.703 206.934 234.703 206.934C245.803 208.433 256.236 224.696 258.203 226.529C260.17 228.362 268.136 227.062 268.37 225.696C268.603 224.33 251.303 178.707 249.703 177.707C248.103 176.707 229.503 187.205 229.503 187.205C231.603 190.637 232.803 189.904 235.236 190.971Z" fill="#FF8A00"/>
<path d="M268.369 225.696C268.569 224.33 251.303 178.707 249.703 177.707C249.303 177.44 247.836 177.907 245.903 178.74C250.503 187.871 262.236 219.331 265.136 227.129C266.869 226.796 268.269 226.263 268.369 225.696Z" fill="#E5E5E5"/>
<path d="M121.803 165.243C121.803 165.243 151.536 243.225 164.069 244.259C176.603 245.292 227.469 211.133 227.469 211.133L218.003 192.17L175.036 206.334L164.336 157.378L121.803 165.243Z" fill="#3B2645"/>
<g opacity="0.5">
<path opacity="0.5" d="M164.336 157.411L121.803 165.243C121.803 165.243 129.436 185.238 138.569 205.101L167.869 173.741L164.336 157.411Z" fill="#3B2645"/>
</g>
<path d="M43.6694 277.718L37.936 291.015C37.936 291.015 39.8027 292.781 39.6694 296.613C39.536 300.446 45.2694 304.312 47.836 303.545C50.4027 302.779 50.8361 301.446 54.6694 302.745L63.8027 284.416L43.6694 277.718Z" fill="#FFEDE5"/>
<path d="M41.6694 282.35C41.6694 282.35 49.5361 290.581 59.8361 292.314L63.7694 284.416L43.6694 277.684L41.6694 282.35Z" fill="#86543D"/>
<path d="M155.969 131.084C155.969 131.084 173.369 151.246 164.303 167.242C155.236 183.239 101.203 212.632 97.5359 221.664C93.8693 230.695 91.8026 241.126 84.3026 253.656C76.8026 266.187 64.8359 288.282 64.8359 288.282C64.8359 288.282 46.7359 287.582 40.8359 279.751C40.8359 279.751 70.0359 205.867 77.0026 196.303C83.9693 186.738 116.836 146.214 116.836 146.214L116.169 138.516L155.969 131.084Z" fill="#3B2645"/>
<path d="M56.6024 285.649C56.569 285.649 56.569 285.649 56.5357 285.649C56.469 285.616 56.4024 285.516 56.469 285.416C56.8024 284.716 88.969 216.198 95.4024 208.2C97.769 205.234 104.736 198.269 112.769 190.204C126.536 176.407 143.636 159.244 145.936 153.979C149.536 145.781 147.136 134.25 147.102 134.117C147.069 134.017 147.136 133.95 147.236 133.917C147.336 133.883 147.402 133.95 147.436 134.05C147.469 134.15 149.869 145.814 146.236 154.112C143.902 159.411 126.769 176.607 113.002 190.437C104.969 198.502 98.0357 205.434 95.669 208.4C89.269 216.365 57.1024 284.849 56.8024 285.549C56.7357 285.616 56.669 285.649 56.6024 285.649Z" fill="white"/>
<path d="M52.0359 284.616C52.0026 284.616 52.0026 284.616 51.9693 284.616C51.9026 284.583 51.8359 284.483 51.9026 284.383C52.2359 283.683 85.6026 213.099 89.4693 207.167C91.436 204.134 103.169 191.737 114.503 179.773C125.703 167.942 137.303 155.678 139.536 152.412C144.003 145.881 143.069 135.283 143.069 135.183C143.069 135.083 143.136 135.016 143.236 135.016C143.336 135.016 143.403 135.083 143.403 135.183C143.403 135.283 144.369 146.014 139.803 152.646C137.536 155.945 125.936 168.209 114.736 180.073C103.403 192.037 91.7026 204.434 89.7359 207.433C85.9026 213.365 52.5026 283.916 52.1693 284.616C52.1693 284.583 52.1026 284.616 52.0359 284.616Z" fill="white"/>
<path d="M47.8027 303.579C45.2693 304.312 39.5027 300.479 39.636 296.647C39.7693 292.814 37.9026 291.048 37.9026 291.048C28.436 297.047 10.0027 291.315 7.30265 291.181C4.60265 291.048 -0.664016 297.18 0.0693177 298.346C0.802651 299.513 43.3693 323.308 45.2693 323.074C47.1693 322.841 54.6026 302.812 54.6026 302.812C50.8026 301.479 50.3693 302.845 47.8027 303.579Z" fill="#FF8A00"/>
<path d="M0.102558 298.346C0.802558 299.513 43.4026 323.308 45.3026 323.074C45.7692 323.008 46.6026 321.741 47.5359 319.842C38.1359 315.809 8.86922 299.28 1.66922 295.18C0.535891 296.513 -0.197442 297.847 0.102558 298.346Z" fill="#E5E5E5"/>
<g opacity="0.5">
<path opacity="0.5" d="M116.836 146.214C116.836 146.214 136.603 143.748 136.403 143.814C136.203 143.881 116.569 142.948 116.569 142.948L116.836 146.214Z" fill="#3B2645"/>
</g>
</svg>
