<svg width="230" height="265" viewBox="0 0 230 265" fill="none" xmlns="http://www.w3.org/2000/svg">
<path d="M228.396 210.273C228.207 213.812 227.559 221.081 222.668 221.081H222.425C221.815 221.025 221.22 220.86 220.669 220.594C220.415 220.48 220.171 220.345 219.939 220.189C218.797 219.255 217.91 218.046 217.362 216.675C216.814 215.305 216.622 213.818 216.805 212.353C216.833 211.445 216.743 210.536 216.535 209.651C216.455 209.23 216.347 208.815 216.211 208.409C216.199 208.328 216.199 208.246 216.211 208.165C215.994 207.679 215.805 207.301 215.616 206.949C215.506 206.733 215.38 206.525 215.238 206.328C215.256 206.276 215.256 206.218 215.238 206.166C215.163 206.038 215.072 205.92 214.968 205.815C214.679 205.424 214.354 205.062 213.995 204.734L213.833 204.572C213.428 204.22 213.049 203.869 212.671 203.572C211.239 202.356 209.969 201.519 210.131 199.978C210.347 196.358 212.833 191.683 216.265 192.71C216.265 192.71 217.129 188.387 214.752 187.306C213.238 186.55 214.752 186.144 215.67 186.063C217.237 185.928 218.804 186.55 220.48 186.415C220.583 186.319 220.691 186.229 220.804 186.144C221.467 186.05 222.14 186.05 222.803 186.144H222.965C223.684 186.299 224.355 186.625 224.92 187.096C225.485 187.566 225.927 188.167 226.208 188.846C226.675 190.221 226.912 191.663 226.91 193.115C227.181 198.979 228.721 204.356 228.396 210.273Z" fill="#3B2645"/>
<path d="M218.318 202.356C218.102 202.923 217.642 203.167 217.156 203.491C216.595 203.885 216.062 204.318 215.562 204.788C215.278 205.084 215.017 205.4 214.778 205.734C214.49 205.343 214.164 204.981 213.806 204.653L213.644 204.491C213.827 204.236 214.025 203.992 214.238 203.761C215.049 202.869 216.643 201.221 217.94 201.627C218.085 201.676 218.205 201.78 218.275 201.915C218.346 202.051 218.361 202.209 218.318 202.356Z" fill="#E8CEE5"/>
<path d="M219.561 205.49C218.502 206.494 217.353 207.398 216.129 208.192C215.913 207.706 215.724 207.328 215.535 206.976C216.466 205.862 217.755 205.108 219.183 204.842C219.256 204.848 219.327 204.872 219.389 204.911C219.451 204.951 219.503 205.005 219.54 205.068C219.577 205.132 219.598 205.203 219.602 205.277C219.605 205.35 219.591 205.423 219.561 205.49Z" fill="#E8CEE5"/>
<path d="M228.396 210.273C228.207 213.812 227.558 221.081 222.668 221.081H222.424C221.815 221.025 221.22 220.86 220.668 220.594C227.882 217.892 226.288 208.381 225.613 201.681C225.548 196.406 224.702 191.17 223.1 186.144C223.796 186.314 224.441 186.648 224.982 187.118C225.523 187.588 225.943 188.18 226.207 188.846C226.674 190.221 226.912 191.663 226.91 193.115C227.18 198.979 228.72 204.355 228.396 210.273Z" fill="#E8CEE5"/>
<path d="M83.0043 66.6909C83.0043 66.6909 82.2748 69.9062 81.0589 74.7968C78.5549 85.2228 75.2487 95.4395 71.1698 105.356C70.0553 107.992 68.6313 110.486 66.9277 112.786C59.3352 122.405 28.8031 100.384 24.9123 97.5202C24.6557 97.3226 24.3442 97.2093 24.0207 97.196C21.8591 97.196 13.2128 96.7366 13.402 90.7653C13.5641 84.2536 18.0493 76.0667 27.8574 85.3614C33.9098 91.0625 55.2823 98.1417 55.2823 98.1417L62.2263 53.1271C62.3137 52.5728 62.5509 52.053 62.9123 51.6237C63.2736 51.1944 63.7453 50.872 64.2765 50.6912C64.8077 50.5104 65.3782 50.4782 65.9264 50.5979C66.4746 50.7177 66.9796 50.985 67.387 51.3708C71.1968 54.9104 77.087 60.6115 83.0043 66.6909Z" fill="#FFEDE5"/>
<path d="M81.0313 74.6887C78.5414 85.1507 75.2442 95.4038 71.1691 105.356C71.034 92.3865 70.7368 74.5266 70.7368 74.5266C72.337 73.7161 74.1105 73.3074 75.9041 73.3356C77.6976 73.3638 79.4573 73.8283 81.0313 74.6887Z" fill="#86543D"/>
<path d="M105.376 145.75C99.729 149.749 93.4335 153.613 87.165 157.423C84.1658 159.233 81.3017 161.043 78.5998 162.827C70.638 168.114 62.971 173.833 55.6332 179.957C58.7944 183.74 62.0908 192.44 65.063 202.329C71.0343 222.215 75.8708 246.992 75.8708 246.992C70.4669 251.937 65.9006 249.694 65.9006 249.694C61.6585 241.588 52.5259 224.053 44.8253 207.922C37.6111 192.926 31.6668 178.957 32.2613 174.526C32.8557 170.095 44.5281 157.288 56.5788 144.967C70.0886 131.457 83.9226 118.433 83.9226 118.433C89.1063 112.878 94.9815 108.011 101.404 103.951C107.862 100.141 114.914 97.9526 120.318 101.519C123.072 103.46 125.143 106.221 126.235 109.409C126.434 109.876 126.606 110.354 126.749 110.841C130.883 123.999 120.183 135.348 105.376 145.75Z" fill="#FFEDE5"/>
<path d="M214.779 199.33C199.918 200.032 184.49 201.735 171.98 202.707C161.172 203.572 152.634 203.95 148.527 202.707C140.421 200.384 127.478 181.416 118.805 167.582C113.698 159.314 110.024 152.856 110.024 152.856C110.024 152.856 107.889 150.154 105.295 145.75C98.4594 134.321 88.4892 112.462 107.997 106.545C116.373 104.005 122.047 105.896 126.56 110.841C132.612 117.461 136.584 129.538 142.231 143.994L157.767 182.605C162.342 181.649 167.011 181.223 171.682 181.335C186.522 181.91 201.271 183.919 215.724 187.333C220.372 193.115 214.779 199.33 214.779 199.33Z" fill="#FFEDE5"/>
<path d="M77.3569 24.4594C83.0581 22.8923 88.7322 21.2171 94.3522 19.3798C97.6486 18.299 101.269 18.2449 102.458 14.4352C102.909 12.8582 102.994 11.1993 102.709 9.58426C102.423 7.9692 101.774 6.44032 100.81 5.11344C98.933 2.75224 96.2991 1.11079 93.3525 0.466075C90.422 -0.155358 87.3936 -0.155358 84.4631 0.466075C82.3485 0.73342 80.3143 1.44448 78.4937 2.55269C76.6731 3.66089 75.1072 5.14122 73.8984 6.89673C72.6059 9.47711 72.0986 12.3799 72.4394 15.2458C72.6671 17.7586 73.5218 20.174 74.9252 22.2708C75.1143 22.5681 76.3842 25.1619 77.0327 24.9728C77.2219 24.8647 77.3299 24.4864 77.3569 24.4594Z" fill="#3B2645"/>
<path d="M75.844 19.9471C75.505 19.6438 75.0991 19.4247 74.6595 19.3078C74.2199 19.1908 73.7588 19.1792 73.3139 19.274C72.8689 19.3688 72.4526 19.5673 72.0988 19.8532C71.745 20.1392 71.4637 20.5047 71.2777 20.9199C69.5755 24.1622 74.6011 28.5934 77.6003 28.1881C77.1888 25.4069 76.6022 22.6544 75.844 19.9471Z" fill="#86543D"/>
<path d="M125.29 42.6977C123.613 51.6942 122.664 60.8113 122.453 69.9604C122.453 70.8521 122.453 71.6356 122.453 72.4192C122.804 78.0663 125.695 104.681 126.235 108.869C126.235 109.22 126.235 109.409 126.235 109.409C108.051 118.866 87.03 118.46 84.355 118.433H84.0578C83.9614 118.049 83.8441 117.67 83.7066 117.299C82.0854 112.408 75.8169 92.2785 70.7642 74.5267C70.7642 74.2565 70.6021 74.0133 70.521 73.7161C67.8191 64.5835 64.0093 57.5044 62.9826 52.2896C62.6043 50.3172 68.8188 48.0476 71.845 46.8857C72.2773 46.6966 72.7366 46.5615 73.223 46.3994C75.6007 45.5618 78.0595 44.8593 80.0319 44.3459L84.1119 43.4002L82.8419 32.5924H83.9227C84.6021 32.5633 85.279 32.4911 85.9492 32.3762C86.7802 32.2407 87.6016 32.0511 88.408 31.8088L89.5428 31.4576L91.0289 30.8361C91.8208 30.5034 92.5883 30.1152 93.3255 29.6743C93.492 29.6022 93.6544 29.5211 93.8119 29.4311C93.8365 29.4453 93.8645 29.4528 93.8929 29.4528C93.9214 29.4528 93.9494 29.4453 93.974 29.4311L94.4874 29.1069C95.3942 28.5106 96.2444 27.8322 97.0272 27.0804C97.4595 26.6751 97.8378 26.3239 98.135 25.9996L98.3241 25.7835C98.4662 25.6541 98.5931 25.5091 98.7024 25.3511C98.8067 25.2557 98.8976 25.1467 98.9726 25.0269V25.2701C98.9726 25.4322 98.9726 25.5943 98.9726 25.7835C98.9726 27.5668 99.3509 29.8094 99.7292 32.052C99.9453 33.5921 100.188 35.1052 100.432 36.4292C100.864 38.6988 101.215 40.347 101.215 40.347C101.705 40.2285 102.201 40.1383 102.701 40.0768H102.863H103.674C105.581 39.7935 107.502 39.622 109.429 39.5634C110.24 39.5634 111.023 39.5634 111.78 39.5634C116.057 39.6302 120.3 40.3314 124.371 41.6439C124.618 41.6961 124.841 41.8271 125.007 42.0172C125.172 42.2073 125.272 42.4461 125.29 42.6977Z" fill="#FFEDE5"/>
<path d="M99.2155 24.9188C99.2684 26.8936 98.8822 28.8555 98.085 30.6629C97.2877 32.4704 96.0991 34.0784 94.6051 35.3708C93.111 36.6633 91.3487 37.6079 89.4453 38.1367C87.5419 38.6655 85.5448 38.7652 83.5982 38.4285L82.9497 32.8355C86.0719 32.7692 89.1426 32.0272 91.9506 30.6605C94.7586 29.2939 97.237 27.335 99.2155 24.9188Z" fill="#86543D"/>
<path d="M74.6823 11.8954C73.4934 13.8137 74.1419 17.2993 74.8444 21.3252C77.006 33.2948 81.3291 36.24 87.5436 35.5915C93.7581 34.943 99.5943 31.2684 98.5405 19.9742C98.0272 14.3271 97.6489 9.16638 95.1361 7.13992C91.3804 4.22181 78.3029 6.05914 74.6823 11.8954Z" fill="#FFEDE5"/>
<path d="M97.3786 18.6232C97.3786 18.6232 98.1621 13.2193 101.648 15.2728C105.133 17.3263 102.674 25.5672 98.0811 26.0806C98.0811 25.9185 96.2978 20.5416 97.3786 18.6232Z" fill="#FFEDE5"/>
<path d="M80.0046 19.9201C80.0046 19.9201 79.0589 20.5416 78.8158 18.6772C78.5726 16.8129 79.3832 17.0831 79.3832 17.0831C79.3832 17.0831 80.0857 16.921 80.3018 18.38C80.518 19.8391 80.0046 19.9201 80.0046 19.9201Z" fill="#3B2645"/>
<path d="M90.4075 17.7046C90.4075 17.7046 89.4618 18.299 89.2186 16.4617C88.9754 14.6243 89.786 14.8675 89.786 14.8675C89.786 14.8675 90.4885 14.7054 90.7047 16.1644C90.9208 17.6235 90.4075 17.7046 90.4075 17.7046Z" fill="#3B2645"/>
<path d="M85.706 23.7839C85.1927 23.7839 84.0578 24.3783 83.6796 23.7839C83.5171 22.5011 83.5171 21.2029 83.6796 19.9201C83.8235 18.2039 83.8686 16.4808 83.8147 14.7594C83.8147 14.7594 83.6526 14.7594 83.6255 14.7594C83.1566 17.9162 82.9488 21.1063 83.0041 24.2973C82.9966 24.3395 83.0005 24.3829 83.0152 24.4231C83.0299 24.4633 83.055 24.4989 83.0879 24.5264C83.1208 24.5538 83.1603 24.572 83.2026 24.5793C83.2448 24.5865 83.2882 24.5824 83.3283 24.5675C84.0849 24.4054 84.8684 24.4054 85.625 24.2432C85.9762 24.1892 85.9762 23.7569 85.706 23.7839Z" fill="#86543D"/>
<path d="M79.9504 14.165C79.1128 13.9488 77.7348 14.165 77.2485 15.0296C77.2295 15.0685 77.2226 15.1122 77.2287 15.155C77.2348 15.1978 77.2537 15.2379 77.2828 15.2699C77.3119 15.3019 77.3499 15.3244 77.392 15.3346C77.434 15.3447 77.4782 15.342 77.5187 15.3268C77.8699 15.3268 78.1671 14.9756 78.5184 14.8675C78.9106 14.7867 79.3151 14.7867 79.7073 14.8675C79.8004 14.8998 79.9026 14.8937 79.9912 14.8506C80.0799 14.8075 80.1479 14.731 80.1801 14.6378C80.2123 14.5447 80.2063 14.4425 80.1632 14.3539C80.1201 14.2652 80.0436 14.1972 79.9504 14.165Z" fill="#3B2645"/>
<path d="M90.9477 12.7599C90.7349 12.5593 90.4841 12.4034 90.21 12.3013C89.936 12.1993 89.6442 12.1532 89.352 12.1658C89.0599 12.1784 88.7732 12.2494 88.5089 12.3746C88.2446 12.4999 88.0082 12.6769 87.8134 12.895C87.7861 12.9416 87.7708 12.9943 87.769 13.0483C87.7672 13.1023 87.7789 13.1559 87.803 13.2042C87.8272 13.2525 87.863 13.2941 87.9073 13.325C87.9516 13.3559 88.0029 13.3753 88.0566 13.3814C88.5324 13.3213 89.0023 13.2219 89.4616 13.0842C89.856 13.0294 90.2561 13.0294 90.6505 13.0842C90.8666 13.2193 91.1098 12.9491 90.9477 12.7599Z" fill="#3B2645"/>
<path d="M88.9756 25.7023C87.8137 26.2968 87.1923 27.1884 85.8143 27.4316C85.1412 27.6079 84.434 27.6079 83.7608 27.4316C83.3825 27.4316 83.3825 27.2425 83.0043 27.2695C82.9765 27.2723 82.9496 27.2812 82.9257 27.2956C82.9017 27.31 82.8813 27.3295 82.8658 27.3527C82.8502 27.376 82.8401 27.4024 82.836 27.43C82.8319 27.4577 82.834 27.4859 82.8422 27.5126C83.1664 28.6745 85.0037 28.4853 85.8954 28.3503C86.6 28.2737 87.2755 28.0271 87.8639 27.6318C88.4522 27.2364 88.9357 26.7041 89.2728 26.0806C89.3539 25.8645 89.1647 25.6213 88.9756 25.7023Z" fill="#86543D"/>
<path d="M146.5 154.315C145.689 154.91 144.933 155.477 144.149 155.991C143.365 156.504 142.906 156.855 142.285 157.26C135.197 162.166 127.236 165.669 118.832 167.582C113.698 159.314 110.023 152.856 110.023 152.856C110.023 152.856 107.889 150.154 105.295 145.75C99.6478 149.749 93.3523 153.613 87.0838 157.423C84.0846 159.233 81.2205 161.043 78.5186 162.826C75.9517 161.286 73.628 159.746 71.5205 158.26C65.9957 154.492 60.9824 150.023 56.6057 144.967C70.1155 131.457 83.9495 118.433 83.9495 118.433C89.1332 112.878 95.0084 108.011 101.431 103.951C107.511 101.89 113.941 101.063 120.345 101.519C123.089 103.464 125.15 106.225 126.235 109.409C126.434 109.876 126.606 110.354 126.748 110.841C132.801 117.461 136.773 129.538 142.42 143.994C143.852 147.614 145.149 151.019 146.5 154.315Z" fill="#FF8A00"/>
<path d="M75.8172 246.992C70.4133 251.937 65.847 249.694 65.847 249.694C61.6049 241.588 52.4723 224.053 44.7717 207.922C51.719 206.815 58.5237 204.949 65.0634 202.356C71.0347 222.215 75.8172 246.992 75.8172 246.992Z" fill="#E8CEE5"/>
<path d="M78.654 250.613C78.6948 250.863 78.6948 251.119 78.654 251.369C78.4643 252.561 77.8383 253.64 76.8977 254.396C75.7172 255.252 74.4147 255.926 73.0339 256.395C67.63 258.584 63.0097 261.799 57.2815 263.231C53.8771 264.123 46.825 265.744 45.2579 261.097C45.2523 261.016 45.2523 260.934 45.2579 260.853C45.1943 260.378 45.1943 259.897 45.2579 259.421C45.2854 259.02 45.3487 258.622 45.447 258.232C45.9604 256.449 47.5545 254.234 51.9317 252.829C52.8025 252.562 53.6373 252.19 54.4175 251.721C54.7824 251.518 55.1343 251.292 55.4712 251.045L55.6874 250.856C56.0878 250.539 56.4586 250.186 56.7952 249.802L57.1464 249.397L57.2815 249.235L57.6598 248.641C57.8751 248.313 58.0648 247.97 58.2272 247.614C58.5244 246.992 58.7406 246.479 58.9297 246.02C59.6052 244.29 60.0646 242.885 61.6317 242.507C65.1442 241.588 70.332 242.507 70.4671 246.074C70.4671 246.074 74.8442 245.56 75.1955 242.939C75.4387 241.264 76.3303 242.561 76.6816 243.426C77.276 244.885 77.1949 246.56 77.8434 248.073C77.8434 248.289 78.0326 248.451 78.1136 248.668C78.4377 249.258 78.6657 249.897 78.7891 250.559C78.7472 250.584 78.7016 250.602 78.654 250.613Z" fill="#3B2645"/>
<path d="M214.779 199.33C199.918 200.032 184.49 201.735 171.98 202.707C172.885 198.265 173.22 193.725 172.979 189.198C172.941 186.512 172.56 183.843 171.844 181.254C186.684 181.829 201.433 183.837 215.886 187.252C220.372 193.115 214.779 199.33 214.779 199.33Z" fill="#E8CEE5"/>
<path d="M59.443 255.017C58.2541 253.774 57.1733 252.45 55.9304 251.234L55.5251 250.856C55.9256 250.539 56.2964 250.186 56.6329 249.802C56.7951 249.964 56.9302 250.127 57.0923 250.262C58.3343 251.418 59.4485 252.704 60.4157 254.098C60.821 254.72 59.9834 255.585 59.443 255.017Z" fill="#E8CEE5"/>
<path d="M62.6043 251.424C62.6461 251.528 62.6559 251.643 62.6322 251.753C62.6085 251.864 62.5525 251.964 62.4713 252.043C62.3901 252.121 62.2874 252.173 62.1763 252.193C62.0653 252.213 61.9508 252.199 61.8477 252.153C60.6499 251.358 59.5283 250.453 58.4973 249.451C58.1808 249.178 57.8468 248.925 57.4976 248.695C57.7128 248.367 57.9025 248.024 58.065 247.668C58.4659 247.825 58.8398 248.043 59.1728 248.316C60.5809 249.016 61.7684 250.092 62.6043 251.424Z" fill="#E8CEE5"/>
<path d="M78.6271 251.37C78.4374 252.561 77.8114 253.64 76.8709 254.396C75.6903 255.252 74.3879 255.926 73.0071 256.395C67.6032 258.584 62.9828 261.799 57.2547 263.231C53.8502 264.123 46.7981 265.744 45.231 261.097C45.2255 261.016 45.2255 260.934 45.231 260.853C45.1675 260.378 45.1675 259.897 45.231 259.421C52.0129 263.988 58.5246 259.827 65.4146 257.611C70.4402 255.963 75.5199 254.99 78.6271 251.37Z" fill="#E8CEE5"/>
<path d="M144.149 155.991C143.528 156.45 142.906 156.855 142.285 157.26C135.692 141.4 129.721 125.08 120.967 110.49C120.507 109.733 121.561 108.923 122.101 109.679C127.505 117.109 130.829 126.296 134.638 134.645C137.881 141.616 141.177 148.776 144.149 155.991Z" fill="#E8CEE5"/>
<path d="M105.376 145.75C99.7291 149.749 93.4336 153.613 87.1651 157.423C84.1659 159.233 81.3018 161.043 78.5999 162.826C76.033 161.286 73.7093 159.746 71.6018 158.26C90.9478 147.236 104.998 145.777 105.376 145.75Z" fill="#826B80"/>
<path d="M126.235 109.409C108.051 118.866 87.0297 118.514 84.3547 118.433H84.0575L83.7063 117.38C82.0851 112.489 75.8166 92.3595 70.7639 74.6077C73.4659 65.5291 73.4659 51.4519 73.2227 46.5614C75.6004 45.7238 78.0592 45.0213 80.0316 44.5079C80.1667 49.2634 81.4366 61.1249 90.5692 61.4492C101.377 61.8274 103.458 46.5344 103.836 39.8335C105.743 39.5502 107.664 39.3788 109.591 39.3202C110.402 39.3202 111.185 39.3202 111.942 39.3202C111.377 43.8193 111.532 48.3795 112.401 52.8299C113.836 60.26 117.339 67.1342 122.506 72.6623C122.668 75.5263 123.452 83.6322 124.263 91.576C125.073 99.5197 126.235 109.409 126.235 109.409Z" fill="#3B2645"/>
<path d="M122.533 72.6623C122.533 75.3642 123.452 83.4701 124.262 91.576C116.254 80.3069 112.086 66.7597 112.374 52.938C113.836 60.3326 117.347 67.1673 122.506 72.6623H122.533Z" fill="#291B30"/>
<path d="M30.8836 88.4957C29.8299 92.3055 27.9385 95.737 26.8037 99.4657C26.2093 101.411 28.9653 102.168 30.0731 100.979C32.7488 97.5456 34.5979 93.5423 35.477 89.2793C36.1525 86.4423 31.6672 85.6857 30.8836 88.4957Z" fill="#FF8A00"/>
<path d="M78.5457 38.6988C79.1941 39.5904 79.8696 40.401 80.5451 41.2386C80.8025 41.5263 81.0374 41.8335 81.2476 42.1573C85.3546 47.8854 86.0571 54.4782 88.1106 60.8278L88.8401 59.693C88.2457 57.2072 87.7323 54.7214 87.0568 52.2896C87.6874 48.5052 89.2368 44.9333 91.5691 41.8871C93.3946 40.0796 95.0497 38.1078 96.5137 35.9968C97.733 33.7274 98.443 31.2194 98.5942 28.6475C98.6494 26.1428 99.1338 23.6662 100.026 21.3252C100.126 21.1288 100.199 20.9198 100.242 20.7038C100.251 20.4258 100.192 20.15 100.069 19.9004C99.9468 19.6507 99.765 19.4349 99.5399 19.2717C99.3708 19.1279 99.1649 19.0344 98.9454 19.0015C98.8319 18.9882 98.717 19.0094 98.6158 19.0624C98.5145 19.1154 98.4317 19.1978 98.378 19.2987C98.3503 19.4415 98.3503 19.5883 98.378 19.7311C98.4362 21.3122 98.3458 22.8953 98.1078 24.4595C97.9457 26.1077 97.8646 27.7829 97.6755 29.4581C97.2084 33.301 95.4227 36.8629 92.6229 39.5364C89.4305 42.6158 87.3414 46.661 86.6786 51.0467C86.0421 48.7757 85.135 46.5894 83.9766 44.535C82.3825 41.833 80.2209 39.4553 78.5727 36.8074C77.3789 34.963 76.5447 32.9094 76.1139 30.755C75.8155 29.7645 75.6608 28.7363 75.6546 27.7018C75.6546 26.6751 76.1409 24.6216 75.4925 23.757C74.4927 22.406 74.1145 23.9731 74.2496 24.9188C74.5738 26.9723 74.5468 29.0528 74.9791 31.0793C75.5709 33.5336 76.6055 35.8594 78.0323 37.9422L78.5457 38.6988Z" fill="#FF8A00"/>
<path d="M100.756 90.9005C99.0803 92.8459 99.4046 96.3044 99.4586 98.574C99.7244 100.553 99.8418 102.549 99.8099 104.545C99.7975 105.408 99.5949 106.257 99.2166 107.032C98.8383 107.808 98.2936 108.49 97.6213 109.031C97.0943 109.273 96.5254 109.41 95.9461 109.436C95.4384 109.544 94.9137 109.544 94.406 109.436C93.6829 109.132 93.0634 108.625 92.6227 107.977C90.7313 105.599 91.1096 103.492 90.9745 100.655C90.9605 99.4494 90.6963 98.2603 90.1987 97.1626C89.701 96.0649 88.9807 95.0826 88.0834 94.2779C83.1388 89.0902 85.7327 84.659 87.2188 78.8498C89.1371 71.3383 89.9207 61.6923 86.6243 54.5322C87.322 59.1938 87.7102 63.8964 87.7862 68.6093C87.3796 73.7132 86.3544 78.7487 84.733 83.6052C84.1711 84.9583 83.8818 86.4091 83.8818 87.8743C83.8818 89.3395 84.1711 90.7902 84.733 92.1434C85.3334 93.1413 86.0701 94.0507 86.9215 94.8453C89.6235 97.5473 89.6235 100.087 89.9207 103.789C90.2179 107.49 94.1628 112.759 98.5129 109.652C99.3468 108.908 99.9905 107.975 100.39 106.932C100.79 105.888 100.933 104.764 100.81 103.654C100.81 101.708 100.404 99.7899 100.296 97.8445C100.125 96.2036 100.197 94.5464 100.512 92.9269C100.595 92.6037 100.742 92.3005 100.945 92.0353C101.358 91.5874 101.91 91.2922 102.512 91.1977C102.817 91.0633 103.152 91.0075 103.485 91.0356C103.913 91.0831 104.312 91.2735 104.619 91.576C105.369 92.4597 105.98 93.4529 106.43 94.5211C106.43 94.7643 106.619 95.2776 106.889 95.3857C107.159 95.4938 107.591 95.2506 107.51 94.8994C106.835 92.1974 103.917 87.2798 100.756 90.9005Z" fill="#FF8A00"/>
<path d="M111.256 92.1991L105.162 95.1753C103.714 95.8826 103.113 97.6299 103.82 99.078L111.255 114.301C111.962 115.749 113.709 116.35 115.158 115.642L121.252 112.666C122.7 111.959 123.3 110.212 122.593 108.763L115.159 93.5407C114.451 92.0925 112.704 91.4919 111.256 92.1991Z" fill="#E8CEE5"/>
<path d="M123.29 41.4277C123.716 41.3385 124.157 41.3533 124.575 41.4709C124.994 41.5885 125.378 41.8054 125.695 42.1032C131.099 47.2099 156.957 72.7704 159.253 83.9024C161.658 95.5478 126.371 104.491 121.831 105.518C121.523 105.587 121.247 105.759 121.048 106.004C119.697 107.572 114.023 113.651 109.672 109.868C105.322 106.085 101.567 97.2771 114.617 95.737C122.588 94.7913 141.123 83.335 141.123 83.335L118.859 66.2857C118.859 66.2857 111.618 43.9946 123.29 41.4277Z" fill="#FFEDE5"/>
<path d="M152.039 182.659C141.42 182.037 130.666 182.659 120.048 182.659C109.429 182.659 98.6482 182.254 88.0566 183.01C88.0089 183.027 87.9675 183.058 87.9383 183.099C87.909 183.14 87.8933 183.189 87.8933 183.24C87.8933 183.29 87.909 183.339 87.9383 183.381C87.9675 183.422 88.0089 183.453 88.0566 183.469C98.6482 184.226 109.429 183.767 120.048 183.794C130.666 183.821 141.42 184.388 152.039 183.794C152.189 183.794 152.334 183.734 152.44 183.627C152.546 183.521 152.606 183.377 152.606 183.226C152.606 183.076 152.546 182.931 152.44 182.825C152.334 182.719 152.189 182.659 152.039 182.659Z" fill="#F7F8F8"/>
<path d="M228.612 139.833C216.859 139.211 204.997 139.644 193.244 139.644C181.49 139.644 169.548 138.914 157.875 139.968C157.761 139.968 157.651 140.013 157.569 140.095C157.488 140.176 157.443 140.286 157.443 140.4C157.443 140.515 157.488 140.625 157.569 140.706C157.651 140.787 157.761 140.833 157.875 140.833C169.548 141.859 181.544 141.103 193.244 141.13C204.943 141.157 216.859 141.562 228.612 140.968C228.763 140.968 228.907 140.908 229.014 140.801C229.12 140.695 229.18 140.551 229.18 140.4C229.18 140.25 229.12 140.105 229.014 139.999C228.907 139.893 228.763 139.833 228.612 139.833Z" fill="#F7F8F8"/>
<path d="M48.419 124.567C40.4482 124.08 32.3424 124.432 24.3446 124.567C16.3102 124.233 8.26319 124.359 0.243176 124.945C0.178682 124.945 0.116829 124.971 0.0712246 125.016C0.0256202 125.062 0 125.124 0 125.188C0 125.253 0.0256202 125.315 0.0712246 125.36C0.116829 125.406 0.178682 125.431 0.243176 125.431C8.26379 126.004 16.31 126.13 24.3446 125.81C32.4505 125.81 40.5563 126.161 48.419 125.81C48.5838 125.81 48.7419 125.744 48.8584 125.628C48.975 125.511 49.0405 125.353 49.0405 125.188C49.0405 125.023 48.975 124.865 48.8584 124.749C48.7419 124.632 48.5838 124.567 48.419 124.567Z" fill="#F7F8F8"/>
<path d="M56.5247 130.484C47.9715 129.7 39.3598 129.809 30.8291 130.808C30.8291 130.808 30.8291 131.051 30.8291 131.079C39.3616 132.056 47.9719 132.155 56.5247 131.376C56.6243 131.351 56.7127 131.294 56.7759 131.213C56.8391 131.132 56.8734 131.032 56.8734 130.93C56.8734 130.827 56.8391 130.728 56.7759 130.647C56.7127 130.566 56.6243 130.509 56.5247 130.484Z" fill="#F7F8F8"/>
<path d="M197.513 24.0271C186.38 23.4056 175.113 23.8379 163.954 23.865C152.795 23.892 141.528 23.4867 130.396 24.2703C130.31 24.2703 130.228 24.3044 130.167 24.3652C130.106 24.426 130.072 24.5085 130.072 24.5945C130.072 24.6805 130.106 24.763 130.167 24.8238C130.228 24.8846 130.31 24.9187 130.396 24.9187C141.528 25.7023 152.822 25.324 163.954 25.351C175.086 25.3781 186.38 25.8104 197.513 25.1889C197.645 25.1601 197.764 25.0868 197.849 24.9811C197.934 24.8754 197.981 24.7438 197.981 24.608C197.981 24.4722 197.934 24.3406 197.849 24.2349C197.764 24.1292 197.645 24.0559 197.513 24.0271Z" fill="#F7F8F8"/>
</svg>
